<svg width="129" height="68" viewBox="0 0 129 68" fill="none" xmlns="http://www.w3.org/2000/svg">
<g clip-path="url(#clip0_51_167)">
<path d="M25.2386 9.99998V11H26.4314L26.2233 9.82548L25.2386 9.99998ZM22.0682 9.99998L21.0887 10.2014L21.2529 11H22.0682V9.99998ZM21.0838 7.59657L20.2517 8.15129L20.2565 8.15832L21.0838 7.59657ZM19.3963 5.85793L18.8081 6.66667L18.8141 6.67098L18.82 6.67519L19.3963 5.85793ZM10.3963 5.62782L9.86779 4.77887L9.86526 4.78046L10.3963 5.62782ZM7.34089 9.16901L6.44158 8.73165L6.43966 8.73564L7.34089 9.16901ZM7.34089 20.6491L6.43966 21.0825L6.4416 21.0865L7.34089 20.6491ZM10.3963 24.1903L9.86526 25.0377L9.86781 25.0393L10.3963 24.1903ZM19.3963 23.973L19.9775 24.7867L19.9795 24.7853L19.3963 23.973ZM21.0838 22.2216L20.2533 21.6646L20.2518 21.6669L21.0838 22.2216ZM22.0682 19.8182V18.8182H21.2544L21.089 19.615L22.0682 19.8182ZM25.2386 19.8182L26.2231 19.9938L26.4328 18.8182H25.2386V19.8182ZM21.5824 26.108L22.1983 26.8958L22.2027 26.8923L21.5824 26.108ZM18.4247 27.7827L18.1127 26.8326L18.1106 26.8333L18.4247 27.7827ZM18.4247 2.03549L18.1106 2.98487L18.1127 2.98555L18.4247 2.03549ZM21.5824 3.72299L20.962 4.50734L20.9665 4.5108L21.5824 3.72299ZM23.9347 6.40765L23.0759 6.92011L23.0778 6.92317L23.9347 6.40765ZM25.2386 8.99998H22.0682V11H25.2386V8.99998ZM23.0477 9.79859C22.8367 8.77261 22.4619 7.84602 21.9111 7.03482L20.2565 8.15832C20.6432 8.7278 20.9246 9.40349 21.0887 10.2014L23.0477 9.79859ZM21.9159 7.04187C21.3887 6.25109 20.7401 5.58187 19.9726 5.04068L18.82 6.67519C19.3821 7.07149 19.8584 7.56139 20.2517 8.15129L21.9159 7.04187ZM19.9845 5.0492C19.2338 4.50324 18.4022 4.0957 17.4957 3.82568L16.9248 5.74246C17.6206 5.94972 18.2463 6.25809 18.8081 6.66667L19.9845 5.0492ZM17.4957 3.82568C16.5983 3.55836 15.6667 3.42612 14.7045 3.42612V5.42612C15.4811 5.42612 16.2199 5.5325 16.9248 5.74246L17.4957 3.82568ZM14.7045 3.42612C12.9415 3.42612 11.3208 3.87437 9.86779 4.77887L10.9248 6.47676C12.0457 5.77898 13.2972 5.42612 14.7045 5.42612V3.42612ZM9.86526 4.78046C8.40549 5.69525 7.26952 7.02926 6.44158 8.73165L8.24018 9.60637C8.92929 8.18944 9.83025 7.16267 10.9273 6.47518L9.86526 4.78046ZM6.43966 8.73564C5.60774 10.4657 5.21588 12.5366 5.21588 14.9091H7.21589C7.21589 12.7475 7.57403 10.9917 8.24209 9.60239L6.43966 8.73564ZM5.21588 14.9091C5.21588 17.2816 5.60774 19.3525 6.43966 21.0825L8.24209 20.2158C7.57403 18.8265 7.21589 17.0707 7.21589 14.9091H5.21588ZM6.4416 21.0865C7.26954 22.7889 8.40549 24.1229 9.86526 25.0377L10.9273 23.343C9.83025 22.6555 8.92929 21.6287 8.24018 20.2118L6.4416 21.0865ZM9.86781 25.0393C11.3208 25.9438 12.9415 26.392 14.7045 26.392V24.392C13.2972 24.392 12.0457 24.0392 10.9248 23.3414L9.86781 25.0393ZM14.7045 26.392C15.6667 26.392 16.5983 26.2598 17.4957 25.9925L16.9248 24.0757C16.2199 24.2857 15.4811 24.392 14.7045 24.392V26.392ZM17.4957 25.9925C18.3988 25.7235 19.2281 25.3221 19.9775 24.7867L18.8151 23.1593C18.252 23.5615 17.6239 23.8674 16.9248 24.0757L17.4957 25.9925ZM19.9795 24.7853C20.7434 24.2369 21.3898 23.5654 21.9159 22.7763L20.2518 21.6669C19.8574 22.2585 19.3787 22.7546 18.8131 23.1607L19.9795 24.7853ZM21.9143 22.7786C22.4616 21.9626 22.8361 21.039 23.0473 20.0214L21.089 19.615C20.9252 20.4042 20.6435 21.0828 20.2533 21.6646L21.9143 22.7786ZM22.0682 20.8182H25.2386V18.8182H22.0682V20.8182ZM24.2542 19.6426C24.0345 20.8741 23.6386 21.9553 23.0759 22.8981L24.7934 23.923C25.4921 22.7521 25.9655 21.4384 26.2231 19.9938L24.2542 19.6426ZM23.0759 22.8981C22.5057 23.8537 21.8014 24.6598 20.9621 25.3236L22.2027 26.8923C23.2384 26.0732 24.1023 25.081 24.7934 23.923L23.0759 22.8981ZM20.9665 25.3201C20.1231 25.9795 19.174 26.484 18.1127 26.8326L18.7368 28.7327C20.0107 28.3143 21.1667 27.7023 22.1983 26.8958L20.9665 25.3201ZM18.1106 26.8333C17.0608 27.1806 15.9276 27.358 14.7045 27.358V29.358C16.1236 29.358 17.4704 29.1517 18.7388 28.732L18.1106 26.8333ZM14.7045 27.358C12.6425 27.358 10.8441 26.8568 9.27863 25.8745L8.21564 27.5687C10.1275 28.7682 12.3007 29.358 14.7045 29.358V27.358ZM9.27863 25.8745C7.71083 24.8908 6.46251 23.4861 5.53939 21.624L3.7475 22.5124C4.81869 24.673 6.30617 26.3706 8.21564 27.5687L9.27863 25.8745ZM5.53939 21.624C4.62461 19.7788 4.1477 17.5511 4.1477 14.9091H2.14771C2.14771 17.7898 2.66795 20.3348 3.7475 22.5124L5.53939 21.624ZM4.1477 14.9091C4.1477 12.267 4.62461 10.0393 5.53939 8.19415L3.7475 7.30581C2.66795 9.48334 2.14771 12.0284 2.14771 14.9091H4.1477ZM5.53939 8.19415C6.46251 6.33211 7.71083 4.92735 9.27863 3.94363L8.21564 2.24951C6.30617 3.44761 4.81869 5.14512 3.7475 7.30581L5.53939 8.19415ZM9.27863 3.94363C10.8441 2.9614 12.6425 2.46021 14.7045 2.46021V0.460205C12.3007 0.460205 10.1275 1.04992 8.21564 2.24951L9.27863 3.94363ZM14.7045 2.46021C15.9276 2.46021 17.0608 2.63752 18.1106 2.98487L18.7388 1.08611C17.4704 0.666417 16.1236 0.460205 14.7045 0.460205V2.46021ZM18.1127 2.98555C19.1718 3.33344 20.1193 3.84086 20.962 4.50734L22.2027 2.93866C21.1704 2.12218 20.0129 1.50459 18.7368 1.08543L18.1127 2.98555ZM20.9665 4.5108C21.8034 5.16514 22.5063 5.96558 23.0759 6.92011L24.7934 5.89519C24.1016 4.73608 23.2364 3.74675 22.1983 2.93518L20.9665 4.5108ZM23.0778 6.92317C23.6384 7.85493 24.0342 8.93428 24.254 10.1745L26.2233 9.82548C25.9658 8.3725 25.4923 7.05696 24.7915 5.89213L23.0778 6.92317ZM44.8079 16.8778H45.8079V15.8778H44.8079V16.8778ZM44.8079 19.4858V20.4858H45.8079V19.4858H44.8079ZM31.0522 19.4858H30.0522V20.4858H31.0522V19.4858ZM31.0522 16.8778V15.8778H30.0522V16.8778H31.0522ZM33.2638 27.1435L32.728 27.9878L32.7305 27.9893L33.2638 27.1435ZM30.1445 23.6023L29.2461 24.0414L29.2481 24.0455L30.1445 23.6023ZM30.1445 12.9276L29.2471 12.4864L29.2451 12.4904L30.1445 12.9276ZM33.2638 9.37356L32.7305 8.52768L32.728 8.52923L33.2638 9.37356ZM42.5835 9.37356L42.0476 10.2179L42.0501 10.2194L42.5835 9.37356ZM45.7028 12.9276L44.8034 13.3647L44.8054 13.3687L45.7028 12.9276ZM45.7028 23.6023L44.8063 23.1591L44.8043 23.1632L45.7028 23.6023ZM42.5835 27.1435L42.0501 26.2976L42.0476 26.2991L42.5835 27.1435ZM43.8079 16.8778V19.4858H45.8079V16.8778H43.8079ZM44.8079 18.4858H31.0522V20.4858H44.8079V18.4858ZM32.0522 19.4858V16.8778H30.0522V19.4858H32.0522ZM31.0522 17.8778H44.8079V15.8778H31.0522V17.8778ZM37.93 27.4091C36.3226 27.4091 34.9569 27.0288 33.7972 26.2976L32.7305 27.9893C34.247 28.9456 35.992 29.4091 37.93 29.4091V27.4091ZM33.7997 26.2991C32.6364 25.5609 31.7161 24.5247 31.041 23.1591L29.2481 24.0455C30.073 25.714 31.2322 27.0385 32.728 27.9878L33.7997 26.2991ZM31.043 23.1632C30.3804 21.8077 30.0323 20.1906 30.0323 18.2841H28.0323C28.0323 20.4344 28.4257 22.3628 29.2461 24.0414L31.043 23.1632ZM30.0323 18.2841C30.0323 16.3593 30.3809 14.7289 31.0439 13.3647L29.2451 12.4904C28.4252 14.1774 28.0323 16.1179 28.0323 18.2841H30.0323ZM31.0419 13.3687C31.7175 11.9946 32.6378 10.9552 33.7997 10.2179L32.728 8.52923C31.2308 9.47938 30.0716 10.8093 29.2471 12.4864L31.0419 13.3687ZM33.7972 10.2194C34.9569 9.4882 36.3226 9.10793 37.93 9.10793V7.10793C35.992 7.10793 34.247 7.57141 32.7305 8.52768L33.7972 10.2194ZM37.93 9.10793C39.5376 9.10793 40.8979 9.48823 42.0476 10.2179L43.1193 8.52923C41.61 7.57139 39.868 7.10793 37.93 7.10793V9.10793ZM42.0501 10.2194C43.2189 10.9565 44.1373 11.9942 44.8034 13.3647L46.6022 12.4904C45.7853 10.8097 44.6241 9.47812 43.1168 8.52769L42.0501 10.2194ZM44.8054 13.3687C45.4755 14.7319 45.8278 16.3609 45.8278 18.2841H47.8278C47.8278 16.1164 47.43 14.1743 46.6002 12.4864L44.8054 13.3687ZM45.8278 18.2841C45.8278 20.189 45.476 21.8046 44.8063 23.1591L46.5992 24.0455C47.4296 22.3659 47.8278 20.436 47.8278 18.2841H45.8278ZM44.8043 23.1632C44.1387 24.5251 43.2204 25.5596 42.0501 26.2976L43.1168 27.9893C44.6227 27.0398 45.7839 25.7136 46.6012 24.0414L44.8043 23.1632ZM42.0476 26.2991C40.8979 27.0288 39.5376 27.4091 37.93 27.4091V29.4091C39.868 29.4091 41.61 28.9456 43.1193 27.9878L42.0476 26.2991ZM37.93 26.6989C39.4528 26.6989 40.7943 26.3053 41.8758 25.4465L40.632 23.8802C39.9749 24.4021 39.1005 24.6989 37.93 24.6989V26.6989ZM41.8758 25.4465C42.8996 24.6334 43.646 23.5701 44.1218 22.2883L42.2468 21.5923C41.8874 22.5606 41.3469 23.3126 40.632 23.8802L41.8758 25.4465ZM44.1218 22.2883C44.5845 21.042 44.8107 19.7042 44.8107 18.2841H42.8107C42.8107 19.4889 42.6194 20.5887 42.2468 21.5923L44.1218 22.2883ZM44.8107 18.2841C44.8107 16.8638 44.5844 15.5228 44.1226 14.2694L42.246 14.9608C42.6194 15.9744 42.8107 17.0793 42.8107 18.2841H44.8107ZM44.1226 14.2694C43.6477 12.9803 42.9028 11.909 41.8805 11.0871L40.6273 12.6459C41.3437 13.2217 41.8856 13.9828 42.246 14.9608L44.1226 14.2694ZM41.8805 11.0871C40.7988 10.2175 39.4556 9.81816 37.93 9.81816V11.8182C39.0977 11.8182 39.9703 12.1177 40.6273 12.6459L41.8805 11.0871ZM37.93 9.81816C36.4045 9.81816 35.0613 10.2175 33.9796 11.0871L35.2327 12.6459C35.8897 12.1177 36.7624 11.8182 37.93 11.8182V9.81816ZM33.9796 11.0871C32.9573 11.909 32.2124 12.9803 31.7374 14.2694L33.6141 14.9608C33.9744 13.9828 34.5164 13.2217 35.2327 12.6459L33.9796 11.0871ZM31.7374 14.2694C31.2757 15.5228 31.0494 16.8638 31.0494 18.2841H33.0494C33.0494 17.0793 33.2407 15.9744 33.6141 14.9608L31.7374 14.2694ZM31.0494 18.2841C31.0494 19.7042 31.2756 21.042 31.7383 22.2883L33.6133 21.5923C33.2407 20.5887 33.0494 19.4889 33.0494 18.2841H31.0494ZM31.7383 22.2883C32.2141 23.5701 32.9605 24.6334 33.9843 25.4465L35.2281 23.8802C34.5132 23.3126 33.9727 22.5606 33.6133 21.5923L31.7383 22.2883ZM33.9843 25.4465C35.0658 26.3053 36.4073 26.6989 37.93 26.6989V24.6989C36.7596 24.6989 35.8852 24.4021 35.2281 23.8802L33.9843 25.4465ZM50.206 22.9886V21.9886H49.1737L49.2065 23.0204L50.206 22.9886ZM53.4276 22.9886L54.4246 22.9119L54.3536 21.9886H53.4276V22.9886ZM54.6293 25.0085L54.0975 25.8554L54.1019 25.8582L54.6293 25.0085ZM60.625 24.9574L61.123 25.8246L61.1294 25.8209L60.625 24.9574ZM61.4304 20.8153L60.5939 21.3634L60.5983 21.37L61.4304 20.8153ZM54.6037 19.2557H53.6037V20.2557H54.6037V19.2557ZM54.6037 16.5455V15.5455H53.6037V16.5455H54.6037ZM60.6378 15.7273L59.9524 14.9991L59.9471 15.0042L60.6378 15.7273ZM60.5739 11.5724L59.9205 12.3295L59.9265 12.3346L60.5739 11.5724ZM55.0511 11.5469L55.6059 12.3789L55.6122 12.3747L55.0511 11.5469ZM53.8366 13.5284V14.5284H54.7854L54.8353 13.581L53.8366 13.5284ZM50.6662 13.5284L49.6667 13.4962L49.6334 14.5284H50.6662V13.5284ZM51.6378 10.7287L52.4348 11.3327L52.4378 11.3287L51.6378 10.7287ZM54.1435 8.81106L54.5427 9.72792L54.5489 9.72518L54.1435 8.81106ZM61.3665 8.83663L60.9345 9.73855L60.9436 9.74281L61.3665 8.83663ZM63.7315 10.7926L62.9007 11.3493L62.9075 11.3591L63.7315 10.7926ZM61.3026 17.7216L61.0073 16.7662L60.3026 16.984V17.7216H61.3026ZM61.3026 17.9261H60.3026V18.8595L61.2338 18.9238L61.3026 17.9261ZM63.233 18.642L62.6173 19.4301L62.6241 19.4354L62.631 19.4406L63.233 18.642ZM64.5241 20.2912L63.6122 20.7016L63.6142 20.7059L64.5241 20.2912ZM64.0256 25.6477L64.834 26.2364L64.8367 26.2326L64.0256 25.6477ZM61.392 27.6932L61.7851 28.6127L61.791 28.6101L61.392 27.6932ZM53.8366 27.7315L53.4505 28.654L53.4566 28.6565L53.8366 27.7315ZM51.2159 25.8267L50.4278 26.4424L50.435 26.4514L51.2159 25.8267ZM50.206 23.9886H53.4276V21.9886H50.206V23.9886ZM52.4305 23.0653C52.5222 24.2575 53.0877 25.2214 54.0975 25.8554L55.161 24.1616C54.7049 23.8752 54.4693 23.4925 54.4246 22.9119L52.4305 23.0653ZM54.1019 25.8582C55.0487 26.4459 56.2119 26.6989 57.5185 26.6989V24.6989C56.4557 24.6989 55.6927 24.4916 55.1566 24.1589L54.1019 25.8582ZM57.5185 26.6989C58.8653 26.6989 60.0807 26.4231 61.123 25.8246L60.127 24.0902C59.4477 24.4803 58.5921 24.6989 57.5185 24.6989V26.6989ZM61.1294 25.8209C62.339 25.1143 62.9162 23.949 62.9162 22.5284H60.9162C60.9162 23.3407 60.6326 23.7948 60.1206 24.0939L61.1294 25.8209ZM62.9162 22.5284C62.9162 21.7001 62.7091 20.9306 62.2624 20.2606L60.5983 21.37C60.7994 21.6717 60.9162 22.0442 60.9162 22.5284H62.9162ZM62.2669 20.2673C61.8309 19.6019 61.2237 19.101 60.4832 18.7576L59.6418 20.572C60.0774 20.774 60.3822 21.0402 60.5939 21.3634L62.2669 20.2673ZM60.4832 18.7576C59.736 18.4111 58.8917 18.2557 57.9787 18.2557V20.2557C58.668 20.2557 59.2128 20.373 59.6418 20.572L60.4832 18.7576ZM57.9787 18.2557H54.6037V20.2557H57.9787V18.2557ZM55.6037 19.2557V16.5455H53.6037V19.2557H55.6037ZM54.6037 17.5455H57.9787V15.5455H54.6037V17.5455ZM57.9787 17.5455C59.3067 17.5455 60.4945 17.2471 61.3285 16.4504L59.9471 15.0042C59.6391 15.2984 59.0541 15.5455 57.9787 15.5455V17.5455ZM61.3231 16.4555C62.1098 15.7151 62.5071 14.767 62.5071 13.6818H60.5071C60.5071 14.233 60.3249 14.6485 59.9524 14.9991L61.3231 16.4555ZM62.5071 13.6818C62.5071 12.5356 62.0856 11.5444 61.2212 10.8102L59.9265 12.3346C60.3065 12.6573 60.5071 13.0723 60.5071 13.6818H62.5071ZM61.2272 10.8154C60.3636 10.07 59.2164 9.76703 57.9276 9.76703V11.767C58.9228 11.767 59.5398 12.001 59.9205 12.3295L61.2272 10.8154ZM57.9276 9.76703C56.6256 9.76703 55.4588 10.0625 54.4901 10.7191L55.6122 12.3747C56.1775 11.9915 56.9284 11.767 57.9276 11.767V9.76703ZM54.4964 10.7148C53.5078 11.3739 52.8997 12.3045 52.838 13.4758L54.8353 13.581C54.8588 13.133 55.0604 12.7426 55.6059 12.3789L54.4964 10.7148ZM53.8366 12.5284H50.6662V14.5284H53.8366V12.5284ZM51.6657 13.5606C51.6934 12.7018 51.9515 11.9703 52.4348 11.3327L50.8408 10.1246C50.0968 11.1064 49.7072 12.2414 49.6667 13.4962L51.6657 13.5606ZM52.4378 11.3287C52.9349 10.6659 53.6241 10.128 54.5427 9.72792L53.7442 7.89422C52.5492 8.41464 51.568 9.15508 50.8378 10.1287L52.4378 11.3287ZM54.5489 9.72518C55.4572 9.3223 56.5254 9.10793 57.7741 9.10793V7.10793C56.2956 7.10793 54.9433 7.36232 53.738 7.89694L54.5489 9.72518ZM57.7741 9.10793C59.0387 9.10793 60.0823 9.33036 60.9345 9.73855L61.7985 7.93475C60.6222 7.37135 59.271 7.10793 57.7741 7.10793V9.10793ZM60.9436 9.74281C61.8237 10.1535 62.4613 10.6936 62.9007 11.3493L64.5623 10.2359C63.8937 9.23819 62.9547 8.47427 61.7894 7.93044L60.9436 9.74281ZM62.9075 11.3591C63.3498 12.0025 63.5753 12.7319 63.5753 13.5795H65.5753C65.5753 12.3476 65.2383 11.2191 64.5556 10.2261L62.9075 11.3591ZM63.5753 13.5795C63.5753 14.4908 63.3249 15.1281 62.9034 15.5902L64.3807 16.9383C65.2035 16.0366 65.5753 14.8842 65.5753 13.5795H63.5753ZM62.9034 15.5902C62.4089 16.132 61.7857 16.5256 61.0073 16.7662L61.5979 18.677C62.6944 18.3381 63.6308 17.76 64.3807 16.9383L62.9034 15.5902ZM60.3026 17.7216V17.9261H62.3026V17.7216H60.3026ZM61.2338 18.9238C61.7915 18.9622 62.2409 19.136 62.6173 19.4301L63.8486 17.854C63.1341 17.2958 62.2965 16.9923 61.3714 16.9285L61.2338 18.9238ZM62.631 19.4406C63.0403 19.7491 63.3689 20.1609 63.6122 20.7016L65.4361 19.8808C65.0657 19.0579 64.5336 18.3702 63.8349 17.8435L62.631 19.4406ZM63.6142 20.7059C63.8557 21.2358 63.9844 21.838 63.9844 22.5284H65.9844C65.9844 21.5824 65.8063 20.6932 65.4341 19.8765L63.6142 20.7059ZM63.9844 22.5284C63.9844 23.5319 63.7195 24.3625 63.2145 25.0628L64.8367 26.2326C65.61 25.1602 65.9844 23.9113 65.9844 22.5284H63.9844ZM63.2172 25.0591C62.6951 25.7761 61.9665 26.3527 60.9931 26.7762L61.791 28.6101C63.0505 28.0621 64.0777 27.275 64.834 26.2364L63.2172 25.0591ZM60.999 26.7737C60.0269 27.1892 58.8902 27.4091 57.5696 27.4091V29.4091C59.1127 29.4091 60.5242 29.1517 61.7851 28.6127L60.999 26.7737ZM57.5696 27.4091C56.2891 27.4091 55.177 27.2011 54.2167 26.8066L53.4566 28.6565C54.6952 29.1654 56.0717 29.4091 57.5696 29.4091V27.4091ZM54.2228 26.8091C53.2545 26.4038 52.5252 25.8625 51.9968 25.202L50.435 26.4514C51.2021 27.4102 52.22 28.1389 53.4505 28.654L54.2228 26.8091ZM52.0039 25.2111C51.5002 24.5663 51.2331 23.8265 51.2055 22.9569L49.2065 23.0204C49.247 24.2985 49.6531 25.4509 50.4278 26.4424L52.0039 25.2111ZM67.1257 33.625H66.1257V34.625H67.1257V33.625ZM67.1257 25.1875V24.1875H66.1257V25.1875H67.1257ZM68.7621 25.1875V26.1875H69.1885L69.4838 25.8797L68.7621 25.1875ZM70.5518 22.1065L69.6019 21.7939L69.5996 21.8013L70.5518 22.1065ZM71.1143 19.652L72.1019 19.8093L72.1021 19.808L71.1143 19.652ZM71.5234 16.1364L72.5197 16.223L72.5198 16.2216L71.5234 16.1364ZM72.1882 8.36362V7.36362H71.2701L71.1918 8.2784L72.1882 8.36362ZM84.6655 8.36362H85.6655V7.36362H84.6655V8.36362ZM84.6655 25.1875H83.6655V26.1875H84.6655V25.1875ZM87.6825 25.1875H88.6825V24.1875H87.6825V25.1875ZM87.6825 33.625V34.625H88.6825V33.625H87.6825ZM84.6655 33.625H83.6655V34.625H84.6655V33.625ZM84.6655 28H85.6655V27H84.6655V28ZM70.1428 28V27H69.1428V28H70.1428ZM70.1428 33.625V34.625H71.1428V33.625H70.1428ZM72.1882 25.1875L71.3909 24.5839L70.177 26.1875H72.1882V25.1875ZM81.6484 25.1875V26.1875H82.6484V25.1875H81.6484ZM81.6484 11.1761H82.6484V10.1761H81.6484V11.1761ZM75.0007 11.1761V10.1761H74.0985L74.006 11.0736L75.0007 11.1761ZM68.1257 33.625V25.1875H66.1257V33.625H68.1257ZM67.1257 26.1875H68.7621V24.1875H67.1257V26.1875ZM69.4838 25.8797C69.9355 25.4088 70.327 24.8969 70.6564 24.3447L68.9388 23.3201C68.6886 23.7394 68.3898 24.131 68.0404 24.4953L69.4838 25.8797ZM70.6564 24.3447C70.9929 23.7805 71.273 23.1328 71.5041 22.4118L69.5996 21.8013C69.4045 22.4099 69.1818 22.9126 68.9388 23.3201L70.6564 24.3447ZM71.5017 22.4192C71.7449 21.6803 71.943 20.807 72.1019 19.8093L70.1268 19.4947C69.9789 20.4231 69.8019 21.1861 69.6019 21.7939L71.5017 22.4192ZM72.1021 19.808C72.2603 18.8063 72.3991 17.61 72.5197 16.223L70.5272 16.0497C70.4092 17.4071 70.2752 18.5545 70.1266 19.496L72.1021 19.808ZM72.5198 16.2216L73.1846 8.44883L71.1918 8.2784L70.5271 16.0511L72.5198 16.2216ZM72.1882 9.36362H84.6655V7.36362H72.1882V9.36362ZM83.6655 8.36362V25.1875H85.6655V8.36362H83.6655ZM84.6655 26.1875H87.6825V24.1875H84.6655V26.1875ZM86.6825 25.1875V33.625H88.6825V25.1875H86.6825ZM87.6825 32.625H84.6655V34.625H87.6825V32.625ZM85.6655 33.625V28H83.6655V33.625H85.6655ZM84.6655 27H70.1428V29H84.6655V27ZM69.1428 28V33.625H71.1428V28H69.1428ZM70.1428 32.625H67.1257V34.625H70.1428V32.625ZM72.1882 26.1875H81.6484V24.1875H72.1882V26.1875ZM82.6484 25.1875V11.1761H80.6484V25.1875H82.6484ZM81.6484 10.1761H75.0007V12.1761H81.6484V10.1761ZM74.006 11.0736L73.4946 16.0338L75.484 16.2395L75.9954 11.2787L74.006 11.0736ZM73.4946 16.0338C73.2839 18.0645 73.0242 19.8238 72.7172 21.3171L74.6763 21.7198C75 20.145 75.2685 18.3168 75.484 16.2395L73.4946 16.0338ZM72.7172 21.3171C72.4214 22.7561 71.9645 23.8263 71.3909 24.5839L72.9855 25.7911C73.7926 24.7249 74.3414 23.349 74.6763 21.7198L72.7172 21.3171ZM90.1531 8.36362V7.36362H88.7315L89.2119 8.70154L90.1531 8.36362ZM93.4258 8.36362L94.3708 8.03673L94.138 7.36362H93.4258V8.36362ZM98.5906 23.2955L97.6455 23.6223L98.6 26.382L99.5376 23.6165L98.5906 23.2955ZM103.653 8.36362V7.36362H102.936L102.706 8.04253L103.653 8.36362ZM106.926 8.36362L107.868 8.69932L108.344 7.36362H106.926V8.36362ZM100.074 27.5909L99.1315 27.2552L99.0735 27.418V27.5909H100.074ZM100.074 35.3636V36.3636H101.074V35.3636H100.074ZM97.0565 35.3636H96.0565V36.3636H97.0565V35.3636ZM97.0565 27.5909H98.0565V27.4168L97.9976 27.253L97.0565 27.5909ZM90.1531 9.36362H93.4258V7.36362H90.1531V9.36362ZM92.4807 8.6905L97.6455 23.6223L99.5356 22.9686L94.3708 8.03673L92.4807 8.6905ZM99.5376 23.6165L104.6 8.6847L102.706 8.04253L97.6435 22.9744L99.5376 23.6165ZM103.653 9.36362H106.926V7.36362H103.653V9.36362ZM105.984 8.02791L99.1315 27.2552L101.015 27.9266L107.868 8.69932L105.984 8.02791ZM99.0735 27.5909V35.3636H101.074V27.5909H99.0735ZM100.074 34.3636H97.0565V36.3636H100.074V34.3636ZM98.0565 35.3636V27.5909H96.0565V35.3636H98.0565ZM97.9976 27.253L91.0942 8.02569L89.2119 8.70154L96.1153 27.9288L97.9976 27.253ZM124.06 16.8011H125.06V15.8011H124.06V16.8011ZM124.06 19.6136V20.6136H125.06V19.6136H124.06ZM113.219 19.6136H112.219V20.6136H113.219V19.6136ZM113.219 16.8011V15.8011H112.219V16.8011H113.219ZM113.935 8.36362H114.935V7.36362H113.935V8.36362ZM113.935 28V29H114.935V28H113.935ZM110.918 28H109.918V29H110.918V28ZM110.918 8.36362V7.36362H109.918V8.36362H110.918ZM126.361 8.36362H127.361V7.36362H126.361V8.36362ZM126.361 28V29H127.361V28H126.361ZM123.344 28H122.344V29H123.344V28ZM123.344 8.36362V7.36362H122.344V8.36362H123.344ZM123.06 16.8011V19.6136H125.06V16.8011H123.06ZM124.06 18.6136H113.219V20.6136H124.06V18.6136ZM114.219 19.6136V16.8011H112.219V19.6136H114.219ZM113.219 17.8011H124.06V15.8011H113.219V17.8011ZM112.935 8.36362V28H114.935V8.36362H112.935ZM113.935 27H110.918V29H113.935V27ZM111.918 28V8.36362H109.918V28H111.918ZM110.918 9.36362H113.935V7.36362H110.918V9.36362ZM125.361 8.36362V28H127.361V8.36362H125.361ZM126.361 27H123.344V29H126.361V27ZM124.344 28V8.36362H122.344V28H124.344ZM123.344 9.36362H126.361V7.36362H123.344V9.36362Z" fill="#EDB623"/>
<path d="M53.5696 59.9999V40.3635H57.392V48.5965H59.233L65.7145 40.3635H70.4446L62.8381 49.9133L70.5341 59.9999H65.7912L59.8722 52.1505H57.392V59.9999H53.5696ZM72.0618 40.3635H76.076L80.7933 54.8479L85.3828 40.3635H89.397L82.6214 59.6675V67.3635H78.8885V59.6675L72.0618 40.3635ZM108.18 40.3635V59.9999H104.447V40.3635H108.18ZM106.556 49.4786V52.7769C105.968 53.0155 105.346 53.2286 104.69 53.4161C104.034 53.5951 103.343 53.7357 102.619 53.838C101.895 53.9402 101.14 53.9914 100.356 53.9914C97.9272 53.9914 95.9968 53.399 94.565 52.2144C93.1332 51.0212 92.4173 49.1973 92.4173 46.7428V40.3252H96.1374V46.7428C96.1374 47.6718 96.3079 48.426 96.6488 49.0056C96.9897 49.5851 97.4755 50.0113 98.1062 50.284C98.7369 50.5567 99.4869 50.6931 100.356 50.6931C101.507 50.6931 102.568 50.5865 103.539 50.3735C104.52 50.1519 105.525 49.8536 106.556 49.4786ZM111.015 40.3635H115.029L119.746 54.8479L124.336 40.3635H128.35L121.575 59.6675V67.3635H117.842V59.6675L111.015 40.3635Z" fill="#EDB623"/>
<path d="M24.8827 37L24.3772 57.7253L25.6409 58.7363L26.9047 59.4945L28.6739 60H30.9486L32.9706 59.7473L34.4871 58.989L36.0036 57.978L39.0365 55.4506L41.3113 53.9341L40.553 53.4286L38.7838 52.4176H37.0146L36.0036 52.6703L34.7398 53.9341V53.4286L34.4871 52.4176L33.9816 51.6593L33.2234 50.9011L31.9596 50.1429H30.4431L29.4321 50.3956L28.6739 51.1538L27.9157 52.1648V53.4286L28.4212 53.1758L29.1794 52.9231L29.9376 53.1758L30.6959 53.9341V54.9451L30.1904 55.956L29.1794 56.7143H27.9157L27.1574 56.4615L26.3992 55.956L25.8937 55.1978V54.4396V53.1758L26.1464 52.0069L26.9047 50.6484L27.9157 49.3846L29.1794 48.3736L30.6959 47.8681H31.9596L32.9706 48.1209L34.7398 49.3846V48.1209L33.9816 46.3516L32.2124 44.8352L30.6959 43.8242H29.4321L28.4212 44.0769L26.9047 45.0879L25.8937 46.0989L25.3882 45.8462V44.3297L26.1464 43.0659L27.4102 42.0549L29.1794 41.5495L24.8827 37Z" fill="#8FBCFD" stroke="#8FBCFD"/>
<path d="M24.6302 37L25.1357 57.7253L23.872 58.7363L22.6083 59.4945L20.839 60H18.5643L16.5423 59.7473L15.0259 58.989L13.5094 57.978L10.4764 55.4506L8.20166 53.9341L8.9599 53.4286L10.7291 52.4176H12.4984L13.5094 52.6703L14.7731 53.9341V53.4286L15.0259 52.4176L15.5313 51.6593L16.2896 50.9011L17.5533 50.1429H19.0698L20.0808 50.3956L20.839 51.1538L21.5973 52.1648V53.4286L21.0918 53.1758L20.3335 52.9231L19.5753 53.1758L18.8171 53.9341V54.9451L19.3226 55.956L20.3335 56.7143H21.5973L22.3555 56.4615L23.1138 55.956L23.6193 55.1978V54.4396V53.1758L23.3665 52.0069L22.6083 50.6484L21.5973 49.3846L20.3335 48.3736L18.8171 47.8681H17.5533L16.5423 48.1209L14.7731 49.3846V48.1209L15.5313 46.3516L17.3006 44.8352L18.8171 43.8242H20.0808L21.0918 44.0769L22.6083 45.0879L23.6193 46.0989L24.1248 45.8462V44.3297L23.3665 43.0659L22.1028 42.0549L20.3335 41.5495L24.6302 37Z" fill="#8FBCFD" stroke="#8FBCFD"/>
<path d="M5.68572 57.3207L2.30664 59.8261L12.394 59.1526L9.21632 57.085L7.53485 54.6641L5.68572 57.3207Z" fill="#8FBCFD" stroke="#8FBCFD"/>
<path d="M40.0475 57.2196L36.509 59.4943H46.6189L43.586 57.2196L42.0695 54.6921L40.0475 57.2196Z" fill="#8FBCFD" stroke="#8FBCFD"/>
</g>
<defs>
<clipPath id="clip0_51_167">
<rect width="129" height="68" fill="white"/>
</clipPath>
</defs>
</svg>
