<svg fill="#FF8C00" viewBox="0 0 32 32" xmlns="http://www.w3.org/2000/svg">
<path d="M26.35,24.28A6.34,6.34,0,0,0,26.46,23a34.23,34.23,0,0,0-1.05-6.62A29.93,29.93,0,0,1,24.5,11a9.46,9.46,0,0,0-.1-1.29A2.57,2.57,0,0,0,24.48,9V8.52a2.49,2.49,0,0,0-.88-1.88A7.2,7.2,0,0,0,16.71,1.5H15.34A7.21,7.21,0,0,0,8.46,6.6a2.44,2.44,0,0,0-.94,1.92V9a2.57,2.57,0,0,0,.08.62A9.46,9.46,0,0,0,7.5,11a29.84,29.84,0,0,1-.91,5.46c-.65,2.92-1.31,5.93-.94,7.87A9.74,9.74,0,0,0,5.5,26v4a.5.5,0,0,0,.5.5H26a.5.5,0,0,0,.5-.5V26A9.74,9.74,0,0,0,26.35,24.28Zm-1-3.14,0,0a9.29,9.29,0,0,0-.82-1.31v0a9.83,9.83,0,0,0-1-1.2,10.4,10.4,0,0,0-4.92-2.77v-.88A6.46,6.46,0,0,0,22,11.51h0a2.83,2.83,0,0,0,.41,0l.12,0,.26-.07.15-.06.21-.09.14-.09.19-.12h0a31.31,31.31,0,0,0,.93,5.62C24.77,18.17,25.12,19.74,25.31,21.14ZM19,22.51l1.15.95L18.5,27.24V17.89l1.13,1.24L18.8,22A.51.51,0,0,0,19,22.51Zm-3-4A1.5,1.5,0,0,1,14.5,17v-.38A10.59,10.59,0,0,1,16,16.5a9.29,9.29,0,0,1,1.5.13V17A1.5,1.5,0,0,1,16,18.5Zm-3.63.63,1.13-1.24v9.35l-1.61-3.78L13,22.51A.51.51,0,0,0,13.2,22ZM9.5,10.43a1.48,1.48,0,0,1-.91-.95A1.31,1.31,0,0,1,8.52,9V8.52A1.47,1.47,0,0,1,9.16,7.3c.09,0,.16-.1.25-.14l.09,0ZM11,6.71a5,5,0,0,1,.44-.78l.13-.18a5.45,5.45,0,0,1,.57-.7,5.53,5.53,0,0,1,7.78,0,5.81,5.81,0,0,1,.63.78l.13.2a5.41,5.41,0,0,1,.45.86v0H17L16.46,5.8A.5.5,0,0,0,16,5.5a.51.51,0,0,0-.44.4l-.21,1L11,6.72ZM22.5,10.43V7.13l0,0,.06,0a1.47,1.47,0,0,1,.89,1.35V9a1.31,1.31,0,0,1-.07.44A1.46,1.46,0,0,1,22.5,10.43ZM17.16,2.54a6.15,6.15,0,0,1,2.71.84A8.55,8.55,0,0,0,17.16,2.54Zm-4.81.73.39-.18Zm.39-.18a6.16,6.16,0,0,1,2-.54A8.29,8.29,0,0,0,12.74,3.09ZM10.66,7.71l5,.2h0a.51.51,0,0,0,.46-.3h0a.51.51,0,0,0,.46.3h4.77a5.91,5.91,0,0,1,.11,1,5.65,5.65,0,0,1-.29,1.69l-5.62,1.67a.5.5,0,0,0-.34.62.49.49,0,0,0,.48.36l.14,0,4.79-1.43a5,5,0,0,1-.78,1,5.3,5.3,0,0,1-2.05,1.29,5.39,5.39,0,0,1-2.76.24,5.81,5.81,0,0,1-.91-.24A5.47,5.47,0,0,1,10.5,9,5.14,5.14,0,0,1,10.66,7.71ZM16,15.5a11.4,11.4,0,0,0-1.32.09l-.18,0v-.34l.26.05.26,0a7.77,7.77,0,0,0,1,.08h0a7.77,7.77,0,0,0,1-.08l.26,0,.26-.05v.35A10.59,10.59,0,0,0,16,15.5ZM7.57,16.63A31.22,31.22,0,0,0,8.5,11h0l.18.11c.05,0,.09.07.15.1l.21.09.15.06a1.83,1.83,0,0,0,.25.06l.13,0a2.83,2.83,0,0,0,.41,0h0a6.44,6.44,0,0,0,3.46,3.42v.88a3.58,3.58,0,0,0-.35.09L13,16a9.9,9.9,0,0,0-1.08.39l-.23.09c-.38.18-.74.37-1.1.58l-.2.13a9.69,9.69,0,0,0-.92.66l-.14.1a10.38,10.38,0,0,0-.9.85l-.19.2a10.45,10.45,0,0,0-.79,1h0A12.15,12.15,0,0,0,6.76,21a.57.57,0,0,1-.08.13C6.87,19.76,7.22,18.18,7.57,16.63ZM6.5,26a9.69,9.69,0,0,1,.14-1.63A9.47,9.47,0,0,1,13,17l-1.51,1.65a.52.52,0,0,0-.11.48L12.15,22l-1.19,1a.49.49,0,0,0-.14.58l2.56,6H6.5Zm8-7,.06,0,.18.12.14.07a2.38,2.38,0,0,0,2.24,0l.14-.07.18-.12.06,0V29.5h-3Zm11,10.5H18.62l2.56-6a.49.49,0,0,0-.14-.58l-1.19-1,.82-2.81a.52.52,0,0,0-.11-.48L19.05,17a9.45,9.45,0,0,1,6.31,7.36A9.69,9.69,0,0,1,25.5,26Z"/>
</svg>