<svg width="32" height="32" viewBox="0 0 32 32" fill="none" xmlns="http://www.w3.org/2000/svg">
<path fill-rule="evenodd" clip-rule="evenodd" d="M11.6687 23.5312C11.3687 23.2311 11.2002 22.8243 11.2002 22.4C11.2002 21.9757 11.3687 21.5688 11.6687 21.2688L16.9375 16L11.6687 10.7312C11.3772 10.4294 11.2159 10.0253 11.2196 9.60575C11.2232 9.18624 11.3915 8.78494 11.6881 8.48828C11.9848 8.19163 12.3861 8.02336 12.8056 8.01971C13.2251 8.01607 13.6293 8.17734 13.9311 8.46879L20.3311 14.8688C20.631 15.1688 20.7995 15.5757 20.7995 16C20.7995 16.4243 20.631 16.8311 20.3311 17.1312L13.9311 23.5312C13.631 23.8311 13.2241 23.9997 12.7999 23.9997C12.3756 23.9997 11.9687 23.8311 11.6687 23.5312Z" fill="white"/>
</svg>
