<svg width="60" heigth="60" fill="#FF8C00" id="Layer_1" version="1.1" viewBox="0 0 66 66" xml:space="preserve" xmlns="http://www.w3.org/2000/svg" xmlns:xlink="http://www.w3.org/1999/xlink">
<path d="M63.8,63.2l-12.5-8.8c-1-0.7-1.5-1.8-1.4-2.8l2.3-8.5c0.2-1.3,0.1-2.6-0.4-3.7L51,37.1l1.3-7.1l3.1-5.1l1.1,3.1   c0.5,3.4,3.5,5.7,6.9,5.3c0.3,0,0.5-0.2,0.7-0.4c0.2-0.2,0.2-0.5,0.2-0.8l-1.9-9.7c-0.7-3.5-1.9-6.9-3.6-10c0-0.1-0.1-0.1-0.1-0.1   L50.4,1.4C50.2,1.1,49.9,1,49.6,1L35,1.4c-0.4,0-0.7,0.2-0.9,0.6S34,2.8,34.2,3l6.5,8.5c0.7,0.9,0.9,2.2,0.4,3.2l-4.7,7.5l-1.9-0.3   l-5.1-3.1l3.1-1.1c3.4-0.5,5.7-3.5,5.4-6.9c0-0.3-0.2-0.5-0.4-0.7C37.3,10,37,9.9,36.7,10L27,11.9c-3.5,0.7-6.9,1.9-10,3.6   c0,0-0.1,0.1-0.1,0.1L2.1,27.2c-0.3,0.2-0.4,0.5-0.4,0.8l0.7,13.8c0,0.4,0.2,0.7,0.6,0.9c0.1,0.1,0.3,0.1,0.4,0.1   c0.2,0,0.4-0.1,0.6-0.2l12.1-9.1c1-0.7,2.2-0.9,3.1-0.4l7.4,4.7c1.2,0.6,2.5,0.8,3.7,0.7l4-0.1l0.3,1.9l-1.4,5.8l-1.9-2.7   c-1.5-3.1-5.1-4.4-8.2-3c-0.3,0.1-0.5,0.3-0.6,0.6c-0.1,0.3-0.1,0.5,0.1,0.8l4.8,8.7c1.7,3.1,3.9,6,6.4,8.5c0,0,0.1,0.1,0.1,0.1   l7.8,5.7c0.2,0.1,0.4,0.2,0.6,0.2h20.8c0.4,0,0.8-0.3,1-0.7C64.3,63.9,64.2,63.4,63.8,63.2z M42.9,15.8   C42.9,15.8,42.9,15.7,42.9,15.8c0.9-1.8,0.7-3.8-0.5-5.4l-5.4-7L49.1,3L57,13.4c1.6,3,2.7,6.1,3.3,9.4l1.7,8.5   c-1.9-0.3-3.4-1.7-3.6-3.7c0-0.1,0-0.1,0-0.2l-1.8-5.3c-0.1-0.4-0.5-0.6-0.8-0.7c-0.4,0-0.8,0.1-1,0.5l-4.3,7.1   c-0.1,0.1-0.1,0.2-0.1,0.3l-0.7,3.8L48,28.4c-0.3-1-1.1-1.7-2-2.1c-0.1,0-0.1,0-0.2,0c0-0.4-0.1-0.7-0.2-1.1   c-0.4-1.2-1.5-2-2.6-2.1l-4.4-0.7L42.9,15.8z M42.7,63l-7.5-5.4c-2.4-2.4-4.4-5-6-8L25,42c1.9-0.3,3.7,0.6,4.6,2.4   c0,0.1,0.1,0.1,0.1,0.2l3.3,4.5c0.2,0.3,0.6,0.5,1,0.4c0.4-0.1,0.7-0.4,0.8-0.8l1.9-8.1c0-0.1,0-0.3,0-0.4l-1.4-8.6   c-0.1-0.4,0.1-0.9,0.4-1.2c0.3-0.2,0.7-0.3,1-0.2c0.4,0.1,0.6,0.4,0.8,0.8l0.4,0.9c0,0,0,0,0,0l1.8,7.5l-0.8,2   c-0.2,0.5,0.1,1.1,0.6,1.3c0.1,0,0.2,0.1,0.4,0.1c0.4,0,0.8-0.2,0.9-0.6l0.9-2.2c0.1-0.2,0.1-0.4,0-0.6l-2.4-9.8   c-0.1-0.4,0.1-0.9,0.4-1.2c0.3-0.2,0.7-0.3,1-0.2c0.4,0.1,0.6,0.4,0.7,0.8l0.6,1.7l2.2,9l-0.8,2c-0.2,0.5,0.1,1.1,0.6,1.3   c0.5,0.2,1.1-0.1,1.3-0.6l0.9-2.2c0.1-0.2,0.1-0.4,0-0.6l-2.4-9.8c-0.1-0.4,0-0.9,0.4-1.2c0.3-0.2,0.7-0.3,1-0.2   c0.3,0.1,0.6,0.4,0.7,0.8l3.8,11c0.4,0.8,0.5,1.8,0.3,2.6L48,51c0,0,0,0.1,0,0.1c-0.3,1.8,0.5,3.8,2.2,4.9l9.9,6.9H42.7z" />
</svg>