<svg width="25" height="25" viewBox="0 0 25 25" fill="none" xmlns="http://www.w3.org/2000/svg">
<path id="Vector" d="M24.5 12.5C24.5 10.1266 23.7962 7.80655 22.4776 5.83316C21.1591 3.85977 19.2849 2.3217 17.0922 1.41345C14.8995 0.505199 12.4867 0.267559 10.1589 0.730582C7.83115 1.1936 5.69295 2.33649 4.01472 4.01472C2.33649 5.69295 1.1936 7.83115 0.730582 10.1589C0.267559 12.4867 0.505199 14.8995 1.41345 17.0922C2.3217 19.2849 3.85977 21.1591 5.83316 22.4776C7.80655 23.7962 10.1266 24.5 12.5 24.5C15.6817 24.4969 18.7321 23.2317 20.9819 20.9819C23.2317 18.7321 24.4969 15.6817 24.5 12.5ZM13.4231 22.6077V15.2692H16.1923C16.4371 15.2692 16.6719 15.172 16.845 14.9989C17.0181 14.8258 17.1154 14.591 17.1154 14.3462C17.1154 14.1013 17.0181 13.8666 16.845 13.6934C16.6719 13.5203 16.4371 13.4231 16.1923 13.4231H13.4231V10.6538C13.4231 10.1642 13.6176 9.69464 13.9638 9.34842C14.31 9.0022 14.7796 8.8077 15.2692 8.8077H17.1154C17.3602 8.8077 17.595 8.71044 17.7681 8.53733C17.9412 8.36422 18.0385 8.12943 18.0385 7.88462C18.0385 7.6398 17.9412 7.40502 17.7681 7.23191C17.595 7.05879 17.3602 6.96154 17.1154 6.96154H15.2692C14.2909 6.96459 13.3535 7.35457 12.6617 8.04636C11.97 8.73814 11.58 9.67552 11.5769 10.6538V13.4231H8.8077C8.56288 13.4231 8.32809 13.5203 8.15498 13.6934C7.98187 13.8666 7.88462 14.1013 7.88462 14.3462C7.88462 14.591 7.98187 14.8258 8.15498 14.9989C8.32809 15.172 8.56288 15.2692 8.8077 15.2692H11.5769V22.6077C8.97477 22.3701 6.56435 21.1386 4.84705 19.1692C3.12975 17.1998 2.23778 14.6442 2.35668 12.0339C2.47557 9.4236 3.59618 6.95964 5.4854 5.15451C7.37462 3.34938 9.88702 2.34205 12.5 2.34205C15.113 2.34205 17.6254 3.34938 19.5146 5.15451C21.4038 6.95964 22.5244 9.4236 22.6433 12.0339C22.7622 14.6442 21.8703 17.1998 20.153 19.1692C18.4357 21.1386 16.0252 22.3701 13.4231 22.6077Z" fill="white"/>
</svg>
