<svg width="94" height="76" viewBox="0 0 94 76" fill="none" xmlns="http://www.w3.org/2000/svg">
<g clip-path="url(#clip0_108_76)">
<path d="M73.9299 3.876C76.2291 1.85295 79.0874 0.507321 82.1634 0C79.9162 2.57838 78.0424 5.43555 76.5922 8.49419C75.3418 10.8512 74.4287 13.3591 73.8782 15.9501C73.8007 16.4903 73.7226 17.3158 74.3947 17.5269C80.1015 19.7428 85.634 22.8098 89.6371 27.3851C91.767 29.7546 93.1782 32.6384 93.7177 35.7227C94.1712 38.8305 93.5814 41.9958 92.0337 44.7613C90.097 48.0663 87.3903 50.8984 84.1245 53.0368C78.4306 56.9228 71.771 59.3192 65.0021 60.834C53.5038 63.2843 41.5918 63.3496 30.0649 61.0262C29.5787 60.834 29.2552 61.3305 28.9764 61.6284C27.6856 63.3107 26.5798 65.1299 25.2383 66.7809C23.0002 69.7713 20.117 72.2657 16.7845 74.0942C15.061 74.9846 13.2099 75.6267 11.291 76C13.9846 73.3266 16.2683 70.3 18.0736 67.011C19.2608 64.914 20.0896 62.648 20.5287 60.2996C20.6837 59.6509 20.6155 58.9711 20.3342 58.3625C19.9972 58.1251 19.6203 57.9448 19.2198 57.829C14.2089 55.9685 9.64256 53.1559 5.7957 49.5599C3.00417 46.785 0.821026 43.2832 0.380442 39.4039C-0.0114401 35.623 1.07094 31.837 3.41894 28.7755C6.25866 24.9202 10.3246 22.0396 14.6195 19.8237C21.3919 16.5119 28.724 14.3783 36.2745 13.5223C45.3913 12.3901 54.64 12.7047 63.6502 14.4533C63.9736 14.5523 64.2268 14.267 64.4531 14.093C65.1585 13.3624 65.8245 12.5978 66.4485 11.802C68.6448 8.9134 71.1543 6.25602 73.9351 3.87436" fill="#FCC32E"/>
<path d="M20.1579 25.1338C20.7016 24.9881 21.2781 25.0001 21.8146 25.1683C22.3511 25.3364 22.8237 25.6532 23.1725 26.0785C23.5213 26.5039 23.7308 27.0188 23.7744 27.5581C23.8181 28.0975 23.694 28.6372 23.4178 29.109C23.1416 29.5808 22.7258 29.9636 22.2227 30.209C21.7196 30.4544 21.152 30.5517 20.5914 30.4879C20.0308 30.4243 19.5024 30.2031 19.073 29.8519C18.6436 29.5008 18.3324 29.0355 18.1787 28.515C18.0764 28.1684 18.0465 27.8059 18.0906 27.4483C18.1348 27.0906 18.2522 26.7448 18.436 26.4307C18.6199 26.1166 18.8666 25.8403 19.1621 25.6178C19.4576 25.3952 19.796 25.2308 20.1579 25.1338Z" fill="#006CA1"/>
<path d="M35.2959 26.8393C36.0216 26.2991 36.987 26.6348 37.8027 26.7404C39.1245 27.0323 40.4325 26.3923 41.7611 26.5606C41.9568 26.5787 42.1414 26.6568 42.2871 26.7832C42.4329 26.9095 42.5324 27.0776 42.571 27.2624C42.6821 27.8187 42.7259 28.3854 42.7008 28.9513C42.6941 33.322 42.6879 37.6863 42.7654 42.0505C42.7507 42.2539 42.7853 42.4575 42.8661 42.6457C42.9473 42.8342 43.0722 43.002 43.2317 43.1367C44.0673 42.9628 45.1619 42.6585 45.8132 43.3726C45.9966 43.6279 46.1188 43.9192 46.1711 44.225C46.2235 44.5308 46.2048 44.8439 46.1163 45.1422C46.0281 45.4404 45.872 45.7164 45.6595 45.9502C45.447 46.184 45.1834 46.3697 44.8873 46.4946C43.8548 46.7552 42.8083 46.3703 41.7715 46.3083C40.8456 46.2645 39.9445 46.7926 39.0317 46.5317C38.3578 46.0165 38.5522 45.0786 38.5455 44.353C37.9791 45.3802 37.0522 46.183 35.9285 46.6193C34.9089 47.0042 33.7974 47.1099 32.7184 46.9248C31.6397 46.7394 30.6357 46.2706 29.8188 45.5702C28.9707 44.7311 28.3042 43.7398 27.8579 42.6527C27.4116 41.5656 27.1942 40.4046 27.2183 39.2366C27.1357 36.9819 27.8832 34.7712 29.3301 32.9916C30.1352 32.1002 31.2218 31.4853 32.4248 31.2399C33.6278 30.9943 34.8816 31.132 35.9956 31.6315C36.6885 32.0212 37.3357 32.4815 37.9258 33.0037C37.9968 32.0996 37.9334 31.1904 37.7381 30.303C37.6153 29.8807 37.0972 30.0919 36.7797 30.1232C36.4288 30.2481 36.0455 30.2625 35.6854 30.1643C35.3256 30.0662 35.0075 29.8605 34.7782 29.5773C34.5531 29.1267 34.4821 28.6198 34.5748 28.1284C34.6676 27.637 34.9193 27.186 35.2944 26.8393" fill="#006CA1"/>
<path d="M52.6268 31.2098C54.9976 30.8371 57.6799 31.1275 59.5259 32.725C61.2813 34.2581 61.8061 36.704 61.5599 38.8895C61.45 39.6316 60.5688 39.8203 59.9251 39.8203C57.3339 39.8574 54.7429 39.8203 52.158 39.8395C51.9247 39.8641 51.5555 39.8583 51.5098 40.1496C51.4474 40.6953 51.5542 41.2467 51.817 41.7346C52.0794 42.2225 52.4863 42.6256 52.9866 42.8932C53.7567 43.2765 54.6471 43.3735 55.4872 43.1662C56.7506 42.8248 57.2368 41.4218 58.4732 41.0558C58.87 40.954 59.2858 40.9391 59.6897 41.012C60.0932 41.0853 60.4748 41.2446 60.8054 41.478C61.0675 41.7301 61.2531 42.0462 61.3422 42.3919C61.4313 42.7375 61.4203 43.0999 61.3103 43.4401C61.1459 43.9535 60.8762 44.4305 60.517 44.843C60.1578 45.2556 59.7163 45.5951 59.2185 45.8423C57.457 46.7455 55.4523 47.1191 53.4661 46.9142C52.4722 46.8455 51.5025 46.5898 50.6124 46.1618C49.722 45.7334 48.9284 45.1413 48.2771 44.4189C47.5386 43.4784 47.0055 42.4049 46.71 41.2625C46.4142 40.1201 46.3619 38.9324 46.556 37.7702C46.7547 35.8714 47.6773 34.1097 49.147 32.8223C50.1308 31.9857 51.3372 31.4272 52.632 31.2083" fill="#006CA1"/>
<path d="M67.7039 31.3214C69.8883 30.8803 72.1455 30.8931 74.324 31.3585C75.0282 31.4713 75.6853 31.7713 76.2199 32.2246C76.7548 32.6782 77.1458 33.2664 77.3488 33.9224C77.8152 35.8653 77.4719 37.8808 77.6146 39.8444C77.5898 40.829 77.633 41.8143 77.7444 42.7935C77.9848 43.2461 78.6189 42.9047 79.0353 42.9923C80.2341 43.0911 80.6704 44.5591 80.1884 45.4817C79.8728 45.9578 79.423 46.3387 78.8911 46.5804C78.3593 46.8221 77.7671 46.9145 77.1826 46.8476C76.5019 46.9054 75.8185 46.771 75.2166 46.4612C74.6146 46.1511 74.1204 45.6793 73.7949 45.1033C72.4259 46.263 70.6598 46.8993 68.8331 46.8914C67.97 46.951 67.1041 46.8233 66.2997 46.5181C65.4951 46.2129 64.7728 45.7377 64.1861 45.1282C63.7688 44.5643 63.4861 43.9195 63.3585 43.2391C63.2308 42.5588 63.2614 41.8596 63.4479 41.192C63.555 40.6731 63.7779 40.1827 64.101 39.7544C64.4243 39.3257 64.8401 38.9691 65.3205 38.7089C66.9011 37.8395 68.7728 37.7835 70.5092 37.3801C71.2707 37.2655 71.9532 36.8661 72.4076 36.2693C72.5206 36.0675 72.5861 35.8443 72.5999 35.6157C72.6139 35.3868 72.5757 35.1582 72.4884 34.9448C72.4008 34.7317 72.2661 34.5393 72.0931 34.3809C71.9204 34.2225 71.7137 34.1021 71.4878 34.0279C70.9311 33.8629 70.1213 33.6932 69.6996 34.1772C69.5276 34.8369 69.7581 35.6549 69.1834 36.1885C68.8772 36.4666 68.5147 36.6815 68.1185 36.8196C67.7223 36.9579 67.3006 37.0166 66.8796 36.9922C66.4586 36.9676 66.0474 36.8606 65.6714 36.6776C65.2954 36.4946 64.9629 36.2395 64.6941 35.9279C64.3723 35.4987 64.2002 34.9831 64.2026 34.4547C64.2048 33.9264 64.3814 33.412 64.7069 32.9855C65.4641 32.1051 66.5263 31.5148 67.6996 31.322" fill="#006CA1"/>
<path d="M16.9894 31.6884C17.9609 31.4461 18.9325 31.8535 19.9048 31.8805C20.9676 31.9367 21.9908 31.4956 23.0535 31.6258C23.6042 31.7808 23.6231 32.4143 23.6498 32.8627C23.6757 35.7063 23.6111 38.553 23.6954 41.3924C23.6274 41.9885 23.735 42.5907 24.0061 43.1309C24.2849 43.2677 24.5827 43.0376 24.8666 43.0255C25.1581 42.94 25.4725 42.9637 25.7465 43.0914C26.0205 43.2194 26.2338 43.4422 26.3433 43.7149C26.4845 44.0815 26.5421 44.4728 26.5125 44.8625C26.4828 45.2523 26.3664 45.6313 26.1712 45.9746C26.0147 46.2007 25.7988 46.3837 25.5452 46.5047C25.2915 46.6257 25.0091 46.6807 24.7263 46.6637C23.3495 46.6762 22.0054 46.3281 20.632 46.4032C19.4273 46.447 18.2226 46.8255 17.0109 46.6145C15.709 46.2111 15.5274 44.4701 16.1298 43.4541C16.622 42.7944 17.5221 43.051 18.2088 43.1936C18.695 42.9826 18.5779 42.3311 18.6494 41.9089C18.6949 40.1332 18.5908 38.3578 18.6364 36.5822C18.5908 36.0733 18.7139 35.403 18.2062 35.0673C17.5264 35.2224 16.6323 35.5209 16.1203 34.8627C15.4792 33.8729 15.6608 32.0942 16.9886 31.6902" fill="#006CA1"/>
<path d="M51.6314 36.065C51.8041 35.6744 52.0684 35.3269 52.404 35.0503C52.7395 34.7736 53.1373 34.5751 53.5662 34.4699C53.9949 34.3647 54.4435 34.3559 54.8764 34.4444C55.3094 34.5326 55.7151 34.7156 56.0623 34.9788C56.2558 35.1676 56.4052 35.3935 56.5014 35.6418C56.5972 35.8899 56.6373 36.1547 56.6189 36.4189C56.3213 36.5447 55.9977 36.6043 55.6725 36.5928C54.4937 36.5803 53.3078 36.6116 52.1287 36.5739C51.8629 36.5803 51.4618 36.3693 51.6296 36.065" fill="#FCC32E"/>
<path d="M34.0525 35.2452C34.4212 35.0898 34.8299 35.0439 35.2261 35.1135C35.6223 35.1832 35.9873 35.3653 36.2745 35.6361C38.2632 37.1139 38.4506 40.1183 37.0584 42.0241C36.8474 42.3171 36.5712 42.5615 36.25 42.7403C35.9288 42.919 35.5703 43.0276 35.2001 43.0577C34.8299 43.0881 34.4576 43.0394 34.1092 42.9154C33.761 42.7914 33.4456 42.5953 33.186 42.3408C32.1232 41.1036 32.0914 39.3489 32.396 37.8395C32.4524 37.3157 32.6306 36.8105 32.9175 36.3615C33.2047 35.9125 33.5929 35.5306 34.0544 35.2443" fill="#FCC32E"/>
<path d="M68.7704 41.1367C69.9621 40.477 71.4654 40.6649 72.6632 39.9879C72.6914 40.7299 72.5444 41.4686 72.2331 42.1484C71.8871 42.6293 71.3766 42.9792 70.79 43.1379C70.2033 43.2966 69.5772 43.254 69.0199 43.0178C68.8362 42.9421 68.6764 42.8217 68.5563 42.6685C68.4363 42.5153 68.3601 42.3347 68.335 42.1447C68.3102 41.9547 68.3377 41.7617 68.4146 41.5848C68.4914 41.4078 68.6154 41.2534 68.7737 41.1367" fill="#FCC32E"/>
</g>
<defs>
<clipPath id="clip0_108_76">
<rect width="94" height="76" fill="white"/>
</clipPath>
</defs>
</svg>
