<svg width="25" height="25" viewBox="0 0 25 25" fill="none" xmlns="http://www.w3.org/2000/svg">
<path id="Vector" fill-rule="evenodd" clip-rule="evenodd" d="M21.6538 21.6537C22.2055 21.1003 22.6387 20.4352 22.9213 19.7058C23.192 19.0052 23.3782 18.2065 23.4323 17.0354C23.4865 15.8626 23.5 15.4869 23.5 12.5C23.5 9.51308 23.4865 9.13738 23.4323 7.96462C23.3782 6.79354 23.192 5.99477 22.9213 5.29415C22.645 4.56027 22.2118 3.89553 21.6521 3.34631C21.1029 2.78666 20.4382 2.35352 19.7044 2.07708C19.0039 1.80631 18.2052 1.62015 17.0342 1.566C15.8615 1.51185 15.4858 1.5 12.4992 1.5C9.51246 1.5 9.1368 1.51185 7.96412 1.56769C6.79313 1.61846 5.99442 1.80462 5.29386 2.07708C4.56041 2.35415 3.89586 2.7872 3.34617 3.34631C2.78711 3.89605 2.35408 4.56064 2.07703 5.29415C1.80628 5.99477 1.62014 6.79354 1.56599 7.96462C1.51185 9.13738 1.5 9.51308 1.5 12.5C1.5 15.4869 1.51185 15.8626 1.56769 17.0354C1.61845 18.2065 1.80459 19.0052 2.07703 19.7058C2.35455 20.4403 2.78775 21.1037 3.34617 21.6537C3.89612 22.2122 4.56115 22.6454 5.29386 22.9229C5.99442 23.1937 6.79313 23.3798 7.96412 23.434C9.1368 23.4865 9.51246 23.5 12.4992 23.5C15.4858 23.5 15.8615 23.4865 17.0342 23.4323C18.2052 23.3815 19.0039 23.1954 19.7044 22.9229C20.435 22.6401 21.1001 22.2078 21.6538 21.6537ZM3.19218 11.2054V13.7946C3.18879 15.184 3.18879 15.5445 3.22602 16.3331C3.27002 17.3248 3.32417 18.0525 3.49 18.6008C3.64907 19.1288 3.82674 19.6669 4.40885 20.3134C4.99096 20.9615 5.55107 21.2543 6.26517 21.4709C6.98096 21.6858 7.87951 21.7315 8.6596 21.7671C9.54292 21.8077 9.89489 21.8077 11.7495 21.8077H13.7514C15.1762 21.8094 15.5349 21.8111 16.3336 21.7738C17.3236 21.7282 18.0512 21.674 18.6011 21.5098C19.1274 21.3508 19.6655 21.1714 20.3119 20.5909C20.96 20.0088 21.2528 19.4469 21.4694 18.7328C21.6843 18.0186 21.7317 17.12 21.7672 16.3398C21.8061 15.4565 21.8061 15.1062 21.8061 13.2565V11.7503C21.8061 9.89554 21.8061 9.54523 21.7672 8.66015C21.7317 7.88 21.6843 6.98138 21.4694 6.26723C21.2545 5.55138 20.9617 4.99123 20.3119 4.40908C19.6638 3.82692 19.1274 3.64923 18.6011 3.49015C18.0512 3.326 17.3236 3.27015 16.3336 3.22615C15.4734 3.1908 14.6123 3.17951 13.7514 3.19231H11.7495C9.89489 3.19231 9.54292 3.19231 8.6596 3.23123C7.87951 3.26677 6.98096 3.31415 6.26517 3.52908C5.55107 3.74569 4.99096 4.03846 4.40885 4.68662C3.82674 5.33477 3.64737 5.87123 3.49 6.39923C3.32417 6.94754 3.27002 7.67523 3.22602 8.66692C3.18879 9.45554 3.18879 9.816 3.19218 11.2054ZM12.4992 8.69231C11.4894 8.69231 10.5209 9.09347 9.80692 9.80756C9.09289 10.5216 8.69175 11.4901 8.69175 12.5C8.69175 13.5099 9.09289 14.4784 9.80692 15.1924C10.5209 15.9065 11.4894 16.3077 12.4992 16.3077C13.5089 16.3077 14.4774 15.9065 15.1914 15.1924C15.9054 14.4784 16.3066 13.5099 16.3066 12.5C16.3066 11.4901 15.9054 10.5216 15.1914 9.80756C14.4774 9.09347 13.5089 8.69231 12.4992 8.69231ZM6.99958 12.5C6.99958 11.0413 7.57899 9.64236 8.61036 8.61091C9.64174 7.57946 11.0406 7 12.4992 7C13.9577 7 15.3566 7.57946 16.3879 8.61091C17.4193 9.64236 17.9987 11.0413 17.9987 12.5C17.9987 13.9587 17.4193 15.3576 16.3879 16.3891C15.3566 17.4205 13.9577 18 12.4992 18C11.0406 18 9.64174 17.4205 8.61036 16.3891C7.57899 15.3576 6.99958 13.9587 6.99958 12.5ZM18.371 7.89692C18.7076 7.89692 19.0304 7.7632 19.2684 7.52517C19.5064 7.28715 19.6401 6.96431 19.6401 6.62769C19.6401 6.29107 19.5064 5.96824 19.2684 5.73021C19.0304 5.49218 18.7076 5.35846 18.371 5.35846C18.0344 5.35846 17.7116 5.49218 17.4736 5.73021C17.2356 5.96824 17.1019 6.29107 17.1019 6.62769C17.1019 6.96431 17.2356 7.28715 17.4736 7.52517C17.7116 7.7632 18.0344 7.89692 18.371 7.89692Z" fill="white"/>
</svg>
