<svg width="40" height="40" viewBox="0 0 40 40" fill="none" xmlns="http://www.w3.org/2000/svg">
<rect width="40" height="40" rx="20" fill="white"/>
<path d="M22.8284 17.8284C23.5786 17.0783 24 16.0609 24 15C24 13.9391 23.5786 12.9217 22.8284 12.1716C22.0783 11.4214 21.0609 11 20 11C18.9391 11 17.9217 11.4214 17.1716 12.1716C16.4214 12.9217 16 13.9391 16 15C16 16.0609 16.4214 17.0783 17.1716 17.8284C17.9217 18.5786 18.9391 19 20 19C21.0609 19 22.0783 18.5786 22.8284 17.8284Z" stroke="#676767" stroke-width="2" stroke-linecap="round" stroke-linejoin="round"/>
<path d="M15.0503 24.0503C16.363 22.7375 18.1435 22 20 22C21.8565 22 23.637 22.7375 24.9497 24.0503C26.2625 25.363 27 27.1435 27 29H13C13 27.1435 13.7375 25.363 15.0503 24.0503Z" stroke="#676767" stroke-width="2" stroke-linecap="round" stroke-linejoin="round"/>
</svg>
