<svg width="159" height="110" viewBox="0 0 159 110" fill="none" xmlns="http://www.w3.org/2000/svg">
<g clip-path="url(#clip0_595_1190)">
<path d="M159 54.6709C159 84.8649 123.567 109.342 79.8592 109.342C67.2476 109.342 55.325 107.304 44.7437 103.679C38.0343 101.38 6.18142 112.802 0.71699 109.342C-4.12447 106.276 17.2708 88.4419 13.6529 84.6348C5.47513 76.0295 0.71836 65.734 0.71836 54.6709C0.71836 24.477 36.1509 0 79.8592 0C123.567 0 159 24.477 159 54.6709Z" fill="#FFC727"/>
<path d="M49.8649 45.0016L37.7161 34.504C37.2784 34.1258 36.6121 34.1967 36.2638 34.6586L21.847 53.7795C21.5856 54.1261 21.5778 54.6019 21.8277 54.957L37.0035 76.5227C37.352 77.0179 38.0571 77.0922 38.5011 76.6806L49.0345 66.9163" stroke="#589EF4" stroke-width="7" stroke-linecap="round"/>
<path d="M67.4805 53.4305L82.193 33.9174C82.5894 33.3917 83.3769 33.3859 83.781 33.9057L99.0569 53.5564M67.4805 53.4305L80.4162 73.1795C80.7802 73.7353 81.575 73.7881 82.0094 73.2854L99.0569 53.5564M67.4805 53.4305L99.0569 53.5564M115.26 42.662L125.899 32.7996C126.304 32.4241 126.937 32.4481 127.312 32.8532L136.631 42.9056C136.949 43.2486 136.986 43.7662 136.722 44.1517L128.832 55.6353C128.574 56.0111 128.603 56.5141 128.902 56.8581L135.708 64.676C136.063 65.0834 136.03 65.6988 135.633 66.066L125.705 75.2694C125.3 75.6449 124.667 75.6209 124.292 75.2159L114.43 64.5767" stroke="#589EF4" stroke-width="7" stroke-linecap="round"/>
</g>
<defs>
<clipPath id="clip0_595_1190">
<rect width="159" height="110" fill="white"/>
</clipPath>
</defs>
</svg>
