<svg width="24" height="25" viewBox="0 0 24 25" fill="none" xmlns="http://www.w3.org/2000/svg">
<g id="iconamoon:mode-dark-light">
<path id="Vector" d="M12 21.5C13.2031 21.5001 14.3941 21.2589 15.5024 20.7907C16.6108 20.3226 17.614 19.637 18.4528 18.7744C19.2916 17.9118 19.9489 16.8899 20.3859 15.7689C20.8229 14.6479 21.0307 13.4507 20.997 12.248C19.7383 13.1241 18.2268 13.5626 16.6947 13.4961C15.1626 13.4296 13.6947 12.8619 12.5166 11.8801C11.3386 10.8983 10.5155 9.55682 10.1739 8.0618C9.83235 6.56678 9.99118 5.00096 10.626 3.60498C8.38422 3.95045 6.35556 5.12964 4.94589 6.90665C3.53622 8.68365 2.84952 10.9274 3.02316 13.189C3.19681 15.4506 4.218 17.5632 5.88243 19.1042C7.54686 20.6451 9.73176 21.5008 12 21.5Z" fill="black" stroke="black" stroke-width="1.5" stroke-linecap="round" stroke-linejoin="round"/>
</g>
</svg>
