<svg width="74" height="74" viewBox="0 0 74 74" fill="none" xmlns="http://www.w3.org/2000/svg">
<g id="play">
<path id="Vector" d="M35.6281 27.861L45.4855 34.4347C45.9078 34.7162 46.254 35.1008 46.4935 35.5483C46.733 35.9958 46.8583 36.4955 46.8583 37.0031C46.8583 37.5106 46.733 38.0103 46.4935 38.4579C46.254 38.9054 45.9078 39.2868 45.4855 39.5684L35.6281 46.1421C35.1637 46.4519 34.624 46.6298 34.0664 46.6569C33.5089 46.684 32.9544 46.5592 32.4622 46.2959C31.97 46.0325 31.5586 45.6405 31.2717 45.1616C30.9849 44.6827 30.8334 44.135 30.8335 43.5767V30.4325C30.8323 29.8738 30.9829 29.3252 31.2693 28.8454C31.5557 28.3657 31.9671 27.9728 32.4595 27.7087C32.9519 27.4446 33.5068 27.3193 34.0649 27.3461C34.623 27.3729 35.1633 27.5509 35.6281 27.861Z" stroke="#0a7e89" stroke-width="2" stroke-linecap="round" stroke-linejoin="round"/>
<path id="Vector_2" d="M62.6377 47.6195C64.0322 44.2527 64.75 40.6442 64.75 37C64.75 29.6402 61.8263 22.5819 56.6222 17.3778C51.4181 12.1737 44.3598 9.25 37 9.25C29.6402 9.25 22.5819 12.1737 17.3778 17.3778C12.1737 22.5819 9.25 29.6402 9.25 37C9.25 40.6442 9.96777 44.2527 11.3623 47.6195C12.7569 50.9862 14.801 54.0454 17.3778 56.6222C19.9546 59.199 23.0137 61.2431 26.3805 62.6377C29.7473 64.0322 33.3558 64.75 37 64.75C40.6442 64.75 44.2527 64.0322 47.6195 62.6377C50.9862 61.2431 54.0454 59.199 56.6222 56.6222C59.199 54.0454 61.2431 50.9862 62.6377 47.6195Z" stroke="#0a7e89" stroke-width="2" stroke-linecap="round" stroke-linejoin="round"/>
</g>
</svg>
