<svg enable-background="new 0 0 64 64" version="1.1" viewBox="0 0 64 64" xml:space="preserve" xmlns="http://www.w3.org/2000/svg" xmlns:xlink="http://www.w3.org/1999/xlink">
<path d="M10.546,48.447c-0.401,0-0.804-0.095-1.175-0.288C8.526,47.72,8,46.854,8,45.901V18.099c0-0.954,0.526-1.82,1.373-2.259    c0.848-0.439,1.859-0.37,2.636,0.178l18.48,13.012c0.801,0.793,1.242,1.848,1.241,2.971c0,1.122-0.441,2.176-1.242,2.968    l-0.125,0.105L12.009,47.983C11.571,48.291,11.06,48.447,10.546,48.447z M10.55,17.511c-0.123,0-0.223,0.041-0.276,0.069    c-0.095,0.049-0.316,0.198-0.316,0.519v27.802c0,0.321,0.221,0.471,0.316,0.52c0.095,0.049,0.346,0.143,0.607-0.041l18.281-12.856    c0.392-0.414,0.607-0.953,0.607-1.523c0.001-0.57-0.215-1.109-0.608-1.524l-18.28-12.856    C10.764,17.537,10.649,17.511,10.55,17.511z"/>
<path d="M34.816,48.447c-0.401,0-0.804-0.096-1.175-0.288c-0.846-0.44-1.371-1.305-1.371-2.259V18.099    c0-0.954,0.525-1.82,1.372-2.259c0.845-0.439,1.858-0.371,2.637,0.177L54.76,29.03c0.801,0.793,1.242,1.848,1.241,2.971    c0,1.122-0.441,2.176-1.242,2.968l-0.125,0.105L36.279,47.983C35.841,48.291,35.33,48.447,34.816,48.447z M34.821,17.511    c-0.123,0-0.223,0.041-0.276,0.069c-0.095,0.049-0.316,0.198-0.316,0.519v27.802c0,0.321,0.221,0.471,0.316,0.52    c0.096,0.049,0.348,0.143,0.607-0.041l18.281-12.856c0.392-0.414,0.607-0.953,0.607-1.523c0.001-0.57-0.215-1.109-0.608-1.524    l-18.28-12.856C35.035,17.537,34.92,17.511,34.821,17.511z"/>
</svg>