<svg width="21" height="21" viewBox="0 0 21 21" fill="none" xmlns="http://www.w3.org/2000/svg">
<g id="Union">
<mask id="path-1-inside-1_104_408" fill="white">
<path fill-rule="evenodd" clip-rule="evenodd" d="M12.3642 5.31409C10.2627 1.97687 7.79693 0.0382884 6.19476 0.731937C4.59259 1.42558 4.31887 4.55022 5.31433 8.36629C1.9771 10.4678 0.0385183 12.9336 0.732167 14.5358C1.42582 16.1379 4.55046 16.4117 8.36654 15.4162C10.468 18.7534 12.9338 20.692 14.536 19.9983C16.1382 19.3047 16.4119 16.1801 15.4164 12.364C18.7536 10.2625 20.6922 7.79669 19.9986 6.19452C19.3049 4.59235 16.1803 4.31864 12.3642 5.31409Z"/>
</mask>
<path fill-rule="evenodd" clip-rule="evenodd" d="M12.3642 5.31409C10.2627 1.97687 7.79693 0.0382884 6.19476 0.731937C4.59259 1.42558 4.31887 4.55022 5.31433 8.36629C1.9771 10.4678 0.0385183 12.9336 0.732167 14.5358C1.42582 16.1379 4.55046 16.4117 8.36654 15.4162C10.468 18.7534 12.9338 20.692 14.536 19.9983C16.1382 19.3047 16.4119 16.1801 15.4164 12.364C18.7536 10.2625 20.6922 7.79669 19.9986 6.19452C19.3049 4.59235 16.1803 4.31864 12.3642 5.31409Z" fill="#EFFF9F"/>
<path d="M6.19476 0.731937L5.79745 -0.18575L5.79745 -0.18575L6.19476 0.731937ZM12.3642 5.31409L11.518 5.84696L11.9082 6.46652L12.6166 6.28171L12.3642 5.31409ZM5.31433 8.36629L5.8472 9.21249L6.46676 8.82234L6.28195 8.11388L5.31433 8.36629ZM0.732167 14.5358L-0.185519 14.9331L-0.185519 14.9331L0.732167 14.5358ZM8.36654 15.4162L9.21274 14.8833L8.82259 14.2638L8.11412 14.4486L8.36654 15.4162ZM14.536 19.9983L14.1387 19.0807L14.536 19.9983ZM15.4164 12.364L14.8836 11.5178L14.264 11.9079L14.4488 12.6164L15.4164 12.364ZM6.59206 1.64962C6.87552 1.5269 7.48581 1.55146 8.48963 2.30947C9.44115 3.028 10.5069 4.24125 11.518 5.84696L13.2104 4.78122C12.1201 3.04971 10.9021 1.62507 9.69486 0.713407C8.53985 -0.158768 7.11616 -0.756675 5.79745 -0.18575L6.59206 1.64962ZM6.28195 8.11388C5.80298 6.27777 5.64755 4.67041 5.77473 3.48487C5.90889 2.23418 6.3086 1.77235 6.59206 1.64962L5.79745 -0.18575C4.47874 0.385176 3.94051 1.83249 3.78614 3.27154C3.62478 4.77575 3.83022 6.63874 4.34671 8.61871L6.28195 8.11388ZM1.64985 14.1385C1.52713 13.855 1.55169 13.2447 2.3097 12.2409C3.02823 11.2894 4.24148 10.2236 5.8472 9.21249L4.78146 7.52009C3.04995 8.61046 1.6253 9.82838 0.71364 11.0357C-0.158537 12.1907 -0.756445 13.6144 -0.185519 14.9331L1.64985 14.1385ZM8.11412 14.4486C6.27801 14.9275 4.67064 15.083 3.4851 14.9558C2.23441 14.8216 1.77258 14.4219 1.64985 14.1385L-0.185519 14.9331C0.385408 16.2518 1.83272 16.79 3.27178 16.9444C4.77599 17.1058 6.63898 16.9003 8.61895 16.3838L8.11412 14.4486ZM14.1387 19.0807C13.8552 19.2034 13.245 19.1788 12.2411 18.4208C11.2896 17.7023 10.2239 16.489 9.21274 14.8833L7.52034 15.9491C8.6107 17.6806 9.82862 19.1052 11.0359 20.0169C12.1909 20.8891 13.6146 21.487 14.9333 20.916L14.1387 19.0807ZM14.4488 12.6164C14.9278 14.4525 15.0832 16.0599 14.956 17.2454C14.8219 18.4961 14.4222 18.9579 14.1387 19.0807L14.9333 20.916C16.252 20.3451 16.7903 18.8978 16.9446 17.4587C17.106 15.9545 16.9005 14.0915 16.3841 12.1116L14.4488 12.6164ZM19.0809 6.59182C19.2036 6.87529 19.1791 7.48557 18.421 8.48938C17.7025 9.44091 16.4893 10.5066 14.8836 11.5178L15.9493 13.2102C17.6808 12.1198 19.1055 10.9019 20.0171 9.69462C20.8893 8.53961 21.4872 7.11592 20.9163 5.79721L19.0809 6.59182ZM12.6166 6.28171C14.4528 5.80275 16.0601 5.64732 17.2457 5.77449C18.4963 5.90866 18.9582 6.30836 19.0809 6.59182L20.9163 5.79721C20.3453 4.47851 18.898 3.94027 17.459 3.7859C15.9548 3.62454 14.0918 3.82998 12.1118 4.34647L12.6166 6.28171Z" fill="black" mask="url(#path-1-inside-1_104_408)"/>
</g>
</svg>
