<svg width="321" height="165" viewBox="0 0 321 165" fill="none" xmlns="http://www.w3.org/2000/svg">
<circle cx="313" cy="33" r="4.5" fill="#5262E9" stroke="#FF9D27"/>
<circle cx="153.5" cy="146.5" r="3" fill="#5262E9" stroke="#FF9D27"/>
<mask id="path-3-inside-1_254_890" fill="white">
<path fill-rule="evenodd" clip-rule="evenodd" d="M260.6 5.50641C258.423 2.04842 255.868 0.0396896 254.207 0.758441C252.547 1.47719 252.264 4.7149 253.295 8.66907C249.837 10.8466 247.828 13.4017 248.547 15.0619C249.266 16.722 252.504 17.0056 256.458 15.9741C258.635 19.4321 261.19 21.4409 262.851 20.7221C264.511 20.0034 264.794 16.7656 263.763 12.8114C267.221 10.6339 269.23 8.07886 268.511 6.41871C267.792 4.75856 264.554 4.47494 260.6 5.50641Z"/>
</mask>
<path fill-rule="evenodd" clip-rule="evenodd" d="M260.6 5.50641C258.423 2.04842 255.868 0.0396896 254.207 0.758441C252.547 1.47719 252.264 4.7149 253.295 8.66907C249.837 10.8466 247.828 13.4017 248.547 15.0619C249.266 16.722 252.504 17.0056 256.458 15.9741C258.635 19.4321 261.19 21.4409 262.851 20.7221C264.511 20.0034 264.794 16.7656 263.763 12.8114C267.221 10.6339 269.23 8.07886 268.511 6.41871C267.792 4.75856 264.554 4.47494 260.6 5.50641Z" fill="#EFFF9F"/>
<path d="M254.207 0.758441L253.81 -0.159245L253.81 -0.159245L254.207 0.758441ZM260.6 5.50641L259.754 6.03928L260.144 6.65884L260.853 6.47403L260.6 5.50641ZM253.295 8.66907L253.828 9.51527L254.448 9.12512L254.263 8.41666L253.295 8.66907ZM248.547 15.0619L247.629 15.4592L247.629 15.4592L248.547 15.0619ZM256.458 15.9741L257.304 15.4413L256.914 14.8217L256.205 15.0065L256.458 15.9741ZM262.851 20.7221L262.453 19.8045L262.851 20.7221ZM263.763 12.8114L263.23 11.9652L262.61 12.3554L262.795 13.0639L263.763 12.8114ZM268.511 6.41871L269.428 6.0214L269.428 6.0214L268.511 6.41871ZM254.605 1.67613C254.917 1.54085 255.564 1.57668 256.607 2.36418C257.598 3.1122 258.705 4.37319 259.754 6.03928L261.446 4.97354C260.318 3.18165 259.059 1.70927 257.812 0.768117C256.618 -0.133554 255.158 -0.742722 253.81 -0.159245L254.605 1.67613ZM254.263 8.41666C253.766 6.5115 253.604 4.84134 253.736 3.60713C253.876 2.30778 254.292 1.8114 254.605 1.67613L253.81 -0.159245C252.462 0.424231 251.907 1.90608 251.748 3.39381C251.581 4.94668 251.793 6.87247 252.328 8.92148L254.263 8.41666ZM249.465 14.6645C249.33 14.3521 249.365 13.705 250.153 12.6621C250.901 11.6715 252.162 10.5644 253.828 9.51527L252.762 7.82287C250.97 8.95126 249.498 10.2105 248.557 11.4569C247.655 12.6509 247.046 14.1115 247.629 15.4592L249.465 14.6645ZM256.205 15.0065C254.3 15.5035 252.63 15.6655 251.396 15.5331C250.096 15.3937 249.6 14.977 249.465 14.6645L247.629 15.4592C248.213 16.8069 249.695 17.3621 251.182 17.5217C252.735 17.6882 254.661 17.4763 256.71 16.9418L256.205 15.0065ZM262.453 19.8045C262.141 19.9397 261.494 19.9039 260.451 19.1164C259.46 18.3684 258.353 17.1074 257.304 15.4413L255.612 16.507C256.74 18.2989 257.999 19.7713 259.246 20.7125C260.44 21.6141 261.9 22.2233 263.248 21.6398L262.453 19.8045ZM262.795 13.0639C263.292 14.969 263.454 16.6392 263.322 17.8734C263.182 19.1728 262.766 19.6692 262.453 19.8045L263.248 21.6398C264.596 21.0563 265.151 19.5745 265.31 18.0867C265.477 16.5339 265.265 14.6081 264.73 12.559L262.795 13.0639ZM267.593 6.81602C267.728 7.12847 267.693 7.77556 266.905 8.81843C266.157 9.80902 264.896 10.9161 263.23 11.9652L264.296 13.6576C266.088 12.5293 267.56 11.27 268.501 10.0237C269.403 8.8296 270.012 7.3691 269.428 6.0214L267.593 6.81602ZM260.853 6.47403C262.758 5.97706 264.428 5.8151 265.662 5.9475C266.961 6.08688 267.458 6.50356 267.593 6.81602L269.428 6.0214C268.845 4.67371 267.363 4.1185 265.875 3.95891C264.323 3.79232 262.397 4.00429 260.348 4.53879L260.853 6.47403Z" fill="black" mask="url(#path-3-inside-1_254_890)"/>
<mask id="path-5-inside-2_254_890" fill="white">
<path fill-rule="evenodd" clip-rule="evenodd" d="M30.3637 149.314C28.2622 145.977 25.7964 144.038 24.1942 144.732C22.592 145.426 22.3183 148.55 23.3138 152.366C19.9766 154.468 18.038 156.934 18.7316 158.536C19.4253 160.138 22.5499 160.412 26.366 159.416C28.4675 162.753 30.9333 164.692 32.5355 163.998C34.1376 163.305 34.4113 160.18 33.4159 156.364C36.7531 154.262 38.6917 151.797 37.998 150.195C37.3044 148.592 34.1798 148.319 30.3637 149.314Z"/>
</mask>
<path fill-rule="evenodd" clip-rule="evenodd" d="M30.3637 149.314C28.2622 145.977 25.7964 144.038 24.1942 144.732C22.592 145.426 22.3183 148.55 23.3138 152.366C19.9766 154.468 18.038 156.934 18.7316 158.536C19.4253 160.138 22.5499 160.412 26.366 159.416C28.4675 162.753 30.9333 164.692 32.5355 163.998C34.1376 163.305 34.4113 160.18 33.4159 156.364C36.7531 154.262 38.6917 151.797 37.998 150.195C37.3044 148.592 34.1798 148.319 30.3637 149.314Z" fill="#5C6CFA"/>
<path d="M24.1942 144.732L23.7969 143.814L23.7969 143.814L24.1942 144.732ZM30.3637 149.314L29.5175 149.847L29.9076 150.467L30.6161 150.282L30.3637 149.314ZM23.3138 152.366L23.8466 153.212L24.4662 152.822L24.2814 152.114L23.3138 152.366ZM18.7316 158.536L17.8139 158.933L17.8139 158.933L18.7316 158.536ZM26.366 159.416L27.2122 158.883L26.822 158.264L26.1136 158.449L26.366 159.416ZM32.5355 163.998L32.1382 163.081L32.5355 163.998ZM33.4159 156.364L32.883 155.518L32.2635 155.908L32.4483 156.616L33.4159 156.364ZM24.5915 145.65C24.875 145.527 25.4853 145.551 26.4891 146.309C27.4406 147.028 28.5063 148.241 29.5175 149.847L31.2099 148.781C30.1195 147.05 28.9016 145.625 27.6943 144.713C26.5393 143.841 25.1156 143.243 23.7969 143.814L24.5915 145.65ZM24.2814 152.114C23.8024 150.278 23.647 148.67 23.7742 147.485C23.9083 146.234 24.3081 145.772 24.5915 145.65L23.7969 143.814C22.4782 144.385 21.94 145.832 21.7856 147.272C21.6242 148.776 21.8297 150.639 22.3462 152.619L24.2814 152.114ZM19.6493 158.138C19.5266 157.855 19.5511 157.245 20.3092 156.241C21.0277 155.289 22.2409 154.224 23.8466 153.212L22.7809 151.52C21.0494 152.61 19.6248 153.828 18.7131 155.036C17.8409 156.191 17.243 157.614 17.8139 158.933L19.6493 158.138ZM26.1136 158.449C24.2775 158.928 22.6701 159.083 21.4845 158.956C20.2339 158.822 19.772 158.422 19.6493 158.138L17.8139 158.933C18.3849 160.252 19.8322 160.79 21.2712 160.944C22.7754 161.106 24.6384 160.9 26.6184 160.384L26.1136 158.449ZM32.1382 163.081C31.8547 163.203 31.2444 163.179 30.2406 162.421C29.2891 161.702 28.2233 160.489 27.2122 158.883L25.5198 159.949C26.6102 161.681 27.8281 163.105 29.0354 164.017C30.1904 164.889 31.6141 165.487 32.9328 164.916L32.1382 163.081ZM32.4483 156.616C32.9272 158.453 33.0827 160.06 32.9555 161.245C32.8213 162.496 32.4216 162.958 32.1382 163.081L32.9328 164.916C34.2515 164.345 34.7897 162.898 34.9441 161.459C35.1054 159.955 34.9 158.092 34.3835 156.112L32.4483 156.616ZM37.0803 150.592C37.2031 150.875 37.1785 151.486 36.4205 152.489C35.702 153.441 34.4887 154.507 32.883 155.518L33.9488 157.21C35.6803 156.12 37.1049 154.902 38.0166 153.695C38.8887 152.54 39.4866 151.116 38.9157 149.797L37.0803 150.592ZM30.6161 150.282C32.4522 149.803 34.0596 149.647 35.2451 149.774C36.4958 149.909 36.9576 150.308 37.0803 150.592L38.9157 149.797C38.3448 148.479 36.8975 147.94 35.4584 147.786C33.9542 147.625 32.0912 147.83 30.1113 148.346L30.6161 150.282Z" fill="black" mask="url(#path-5-inside-2_254_890)"/>
<mask id="path-7-inside-3_254_890" fill="white">
<path d="M19 23.5C19 28.7467 14.7467 33 9.5 33C4.25329 33 0 28.7467 0 23.5C0 18.2533 4.25329 14 9.5 14C14.7467 14 19 18.2533 19 23.5ZM3.12082 23.5C3.12082 27.0231 5.97688 29.8792 9.5 29.8792C13.0231 29.8792 15.8792 27.0231 15.8792 23.5C15.8792 19.9769 13.0231 17.1208 9.5 17.1208C5.97688 17.1208 3.12082 19.9769 3.12082 23.5Z"/>
</mask>
<path d="M19 23.5C19 28.7467 14.7467 33 9.5 33C4.25329 33 0 28.7467 0 23.5C0 18.2533 4.25329 14 9.5 14C14.7467 14 19 18.2533 19 23.5ZM3.12082 23.5C3.12082 27.0231 5.97688 29.8792 9.5 29.8792C13.0231 29.8792 15.8792 27.0231 15.8792 23.5C15.8792 19.9769 13.0231 17.1208 9.5 17.1208C5.97688 17.1208 3.12082 19.9769 3.12082 23.5Z" fill="#FFD36F" stroke="#589EF4" mask="url(#path-7-inside-3_254_890)"/>
<path d="M295 143.52C295 137.182 300.147 132 306.52 132C312.858 132 318.041 137.147 318.041 143.52C318.041 149.858 312.893 155.041 306.52 155.041C300.147 155.006 295 149.858 295 143.52ZM316.92 143.52C316.92 137.778 312.263 133.121 306.52 133.121C300.778 133.121 296.121 137.778 296.121 143.52C296.121 149.263 300.778 153.92 306.52 153.92C312.263 153.92 316.92 149.228 316.92 143.52ZM297.906 143.52C297.906 138.793 301.758 134.941 306.485 134.941C311.213 134.941 315.064 138.793 315.064 143.52C315.064 148.248 311.213 152.099 306.485 152.099C301.758 152.099 297.906 148.248 297.906 143.52ZM313.979 143.52C313.979 139.388 310.617 136.027 306.485 136.027C302.353 136.027 298.992 139.388 298.992 143.52C298.992 147.652 302.353 151.014 306.485 151.014C310.617 150.979 313.979 147.617 313.979 143.52Z" fill="#AF9FFF"/>
<path d="M297.906 147.617C297.906 141.279 303.054 136.097 309.427 136.097C315.765 136.097 320.947 141.244 320.947 147.617C320.947 153.955 315.8 159.138 309.427 159.138C303.089 159.103 297.906 153.955 297.906 147.617ZM319.827 147.617C319.827 141.875 315.169 137.217 309.427 137.217C303.684 137.217 299.027 141.875 299.027 147.617C299.027 153.36 303.684 158.017 309.427 158.017C315.169 158.017 319.827 153.36 319.827 147.617ZM300.848 147.617C300.848 142.89 304.699 139.038 309.427 139.038C314.154 139.038 318.006 142.89 318.006 147.617C318.006 152.344 314.154 156.196 309.427 156.196C304.699 156.196 300.848 152.344 300.848 147.617ZM316.92 147.617C316.92 143.485 313.559 140.124 309.427 140.124C305.295 140.124 301.933 143.485 301.933 147.617C301.933 151.749 305.295 155.111 309.427 155.111C313.559 155.076 316.92 151.749 316.92 147.617Z" fill="#362A6F"/>
</svg>
