<svg width="31" height="85" viewBox="0 0 31 85" fill="none" xmlns="http://www.w3.org/2000/svg">
<path d="M0.50015 1.63158C3.10594 1.63158 7.73024 0.566408 10.8059 1.63151C12.6969 2.28634 17.0788 5.03278 18.76 6.39138C22.9276 9.75938 25.8524 15.5981 27.8583 19.9088C30.2092 24.961 29.6171 29.6409 28.8992 33.9582C28.3668 37.16 25.3588 40.3241 22.4773 41.5143C17.6811 43.4953 8.40349 42.8215 4.08932 35.313C0.595316 29.232 7.8522 28.6556 11.885 29.1031C17.3648 29.7111 23.4446 36.4131 26.122 41.5089C28.2752 45.607 29.9803 49.8695 29.8305 53.7269C29.6246 59.0269 27.8745 63.5372 25.808 67.7395C24.4106 70.5812 22.743 73.2366 20.6266 75.4762C19.8709 76.2758 13.1128 83.0096 12.3486 83.7758" stroke="#FFD36F" stroke-linecap="round" stroke-dasharray="2 2"/>
</svg>
