<svg width="134" height="99" viewBox="0 0 134 99" fill="none" xmlns="http://www.w3.org/2000/svg">
<path d="M112 0.5C116.719 0.5 124.845 5.10184 128 9.5C129.94 12.204 132.499 19.7729 133 23C134.243 31 129.64 40.2983 126 47C121.734 54.8545 113.43 59.1864 105.5 63C99.6185 65.8284 89.9063 65.9855 83.503 64.1845C72.8447 61.1869 59.3268 50.6118 64.3775 38.0667C68.4679 27.9066 80.7799 35.0087 86.4123 39.7694C94.0657 46.2383 93.0603 59.8049 89.239 68.0526C86.1658 74.6857 82.1294 81.0166 75.8164 84.9465C67.1424 90.3462 57.2859 93.2674 47.4174 95.5259C40.7442 97.0531 33.9398 98.0957 27.0852 98.2203C24.6379 98.2648 3.40814 98.2203 1 98.2203" stroke="#FFD36F" stroke-linecap="round" stroke-dasharray="2 2"/>
</svg>
