<svg width="28" height="27" viewBox="0 0 28 27" fill="none" xmlns="http://www.w3.org/2000/svg">
<g id="ph:youtube-logo" clip-path="url(#clip0_108_103)">
<path id="Vector" d="M18.3923 12.7053L12.6066 8.88716C12.4614 8.79123 12.2925 8.73614 12.1181 8.72777C11.9437 8.71941 11.7702 8.75808 11.6163 8.83967C11.4624 8.92125 11.3337 9.04269 11.244 9.19101C11.1543 9.33933 11.107 9.50897 11.1071 9.68182V17.3182C11.107 17.491 11.1543 17.6607 11.244 17.809C11.3337 17.9573 11.4624 18.0788 11.6163 18.1603C11.7702 18.2419 11.9437 18.2806 12.1181 18.2722C12.2925 18.2639 12.4614 18.2088 12.6066 18.1128L18.3923 14.2947C18.5246 14.2075 18.6331 14.0894 18.7081 13.9508C18.7831 13.8121 18.8224 13.6573 18.8224 13.5C18.8224 13.3427 18.7831 13.1879 18.7081 13.0493C18.6331 12.9106 18.5246 12.7925 18.3923 12.7053ZM13.0357 15.5344V11.4716L16.119 13.5L13.0357 15.5344ZM26.8166 6.52228C26.703 6.08241 26.4854 5.67557 26.1817 5.33534C25.878 4.9951 25.497 4.73122 25.07 4.56546C20.938 2.98569 14.3616 3 14 3C13.6384 3 7.06196 2.98569 2.93 4.56546C2.50302 4.73122 2.12197 4.9951 1.81829 5.33534C1.51462 5.67557 1.29701 6.08241 1.18344 6.52228C0.87125 7.71307 0.5 9.88943 0.5 13.5C0.5 17.1106 0.87125 19.2869 1.18344 20.4777C1.29684 20.9178 1.51437 21.3249 1.81806 21.6653C2.12174 22.0058 2.50288 22.2699 2.93 22.4357C6.88839 23.9475 13.0839 24 13.9204 24H14.0796C14.9161 24 21.1152 23.9475 25.07 22.4357C25.4971 22.2699 25.8783 22.0058 26.1819 21.6653C26.4856 21.3249 26.7032 20.9178 26.8166 20.4777C27.1287 19.2845 27.5 17.1106 27.5 13.5C27.5 9.88943 27.1287 7.71307 26.8166 6.52228ZM24.9495 20.0052C24.9127 20.1516 24.8415 20.2873 24.7415 20.4012C24.6416 20.515 24.5158 20.6038 24.3745 20.6603C20.5596 22.1184 14.0711 22.0921 14.0084 22.0921H14C13.9349 22.0921 7.45129 22.116 3.63393 20.6603C3.49262 20.6038 3.36685 20.515 3.26691 20.4012C3.16697 20.2873 3.09571 20.1516 3.05897 20.0052C2.76607 18.9159 2.42857 16.9089 2.42857 13.5C2.42857 10.0911 2.76607 8.08415 3.05054 7.00074C3.08659 6.85348 3.15754 6.71683 3.25752 6.60209C3.35749 6.48736 3.48363 6.39783 3.62549 6.34091C7.30424 4.93415 13.4684 4.9091 13.9735 4.9091H14.006C14.0711 4.9091 20.5608 4.88762 24.3721 6.34091C24.5134 6.39737 24.6392 6.48616 24.7391 6.60003C24.8391 6.71389 24.9103 6.84958 24.9471 6.99597C25.2339 8.08415 25.5714 10.0911 25.5714 13.5C25.5714 16.9089 25.2339 18.9159 24.9495 19.9993V20.0052Z" fill="white"/>
</g>
<defs>
<clipPath id="clip0_108_103">
<rect width="27" height="27" fill="white" transform="translate(0.5)"/>
</clipPath>
</defs>
</svg>
